<?xml version="1.0" encoding="utf-8"?>
<!-- Generator: Adobe Illustrator 14.0.0, SVG Export Plug-In . SVG Version: 6.00 Build 43363)  -->
<!DOCTYPE svg PUBLIC "-//W3C//DTD SVG 1.1//EN" "http://www.w3.org/Graphics/SVG/1.1/DTD/svg11.dtd">
<svg version="1.1" id="Layer_1" xmlns="http://www.w3.org/2000/svg" xmlns:xlink="http://www.w3.org/1999/xlink" x="0px" y="0px"
	 width="325px" height="207px" viewBox="0 0 325 207" enable-background="new 0 0 325 207" xml:space="preserve">
<g>
</g>
<g>
</g>
<g>
	<g>
		<path fill="#231F20" d="M45.028,12.632c2.67,0,4.168,2.06,4.168,6.729s-1.498,6.729-4.168,6.729c-2.669,0-4.168-2.061-4.168-6.729
			S42.359,12.632,45.028,12.632 M45.028,25.104c1.865,0,2.999-1.532,2.999-5.744s-1.134-5.745-2.999-5.745s-2.997,1.533-2.997,5.745
			S43.163,25.104,45.028,25.104"/>
		<path fill="#231F20" d="M51.175,16.188h1.098v6.82c0,1.568,0.529,2.17,1.682,2.17c1.242,0,2.12-0.985,2.12-2.481v-6.509h1.097
			v9.683h-0.986v-1.35h-0.037c-0.549,1.077-1.499,1.567-2.486,1.567c-1.48,0-2.486-0.766-2.486-2.588V16.188z"/>
		<path fill="#231F20" d="M59.295,16.188h1.096v1.514h0.038c0.42-1.076,1.314-1.732,2.449-1.732c0.128,0,0.257,0.019,0.383,0.055
			v1.093c-0.181-0.036-0.365-0.055-0.529-0.055c-1.207,0-2.341,0.876-2.341,2.754v6.054h-1.096V16.188z"/>
		<path fill="#231F20" d="M76.666,21.458c-0.165,2.972-1.537,4.631-3.876,4.631c-2.669,0-4.168-2.061-4.168-6.728
			c0-4.668,1.499-6.729,4.168-6.729c2.65,0,3.748,1.878,3.748,4.011h-1.171c0-1.769-0.896-3.028-2.577-3.028
			c-1.866,0-2.998,1.533-2.998,5.745s1.132,5.744,2.998,5.744c1.646,0,2.577-1.405,2.705-3.646H76.666z"/>
		<path fill="#231F20" d="M78.26,16.188h1.096v6.82c0,1.568,0.53,2.17,1.683,2.17c1.243,0,2.12-0.985,2.12-2.481v-6.509h1.097v9.683
			h-0.986v-1.35h-0.037c-0.548,1.077-1.498,1.567-2.486,1.567c-1.48,0-2.485-0.766-2.485-2.588V16.188z"/>
		<path fill="#231F20" d="M87.914,21.056c-1.37-0.528-1.865-1.331-1.865-2.297c0-1.987,1.244-2.791,2.889-2.791
			c1.828,0,2.67,0.931,2.67,2.699v0.274h-1.097v-0.274c0-1.258-0.585-1.786-1.592-1.786c-1.279,0-1.771,0.674-1.771,1.641
			c0,0.674,0.219,1.204,1.316,1.623l1.59,0.602c1.316,0.493,1.811,1.404,1.811,2.462c0,1.66-0.952,2.88-3,2.88
			c-1.992,0-2.979-0.82-2.979-3.009v-0.31h1.098v0.255c0,1.422,0.622,2.152,1.864,2.152c1.17,0,1.919-0.657,1.919-1.733
			c0-0.856-0.347-1.404-1.315-1.786L87.914,21.056z"/>
		<path fill="#231F20" d="M93.895,17.1H92.56v-0.912h1.335v-2.68h1.099v2.68h1.718V17.1h-1.718v6.947
			c0,0.766,0.328,1.021,1.041,1.021c0.219,0,0.438-0.037,0.677-0.109v0.912c-0.128,0.073-0.403,0.109-0.768,0.109
			c-1.481,0-2.049-0.401-2.049-1.694V17.1z"/>
		<path fill="#231F20" d="M100.733,15.969c2.139,0,3.347,1.696,3.347,5.052c0,3.373-1.208,5.068-3.347,5.068
			s-3.346-1.695-3.346-5.068C97.388,17.665,98.595,15.969,100.733,15.969 M100.733,25.178c1.226,0,2.176-1.058,2.176-4.157
			c0-3.083-0.95-4.139-2.176-4.139c-1.225,0-2.176,1.057-2.176,4.139C98.558,24.12,99.509,25.178,100.733,25.178"/>
		<path fill="#231F20" d="M105.764,16.188h0.987v1.35h0.037c0.512-1.076,1.39-1.568,2.468-1.568c1.17,0,1.883,0.71,2.029,1.695
			h0.037c0.438-1.076,1.225-1.695,2.467-1.695c1.355,0,2.249,0.766,2.249,2.498v7.404h-1.097v-7.24c0-1.148-0.53-1.75-1.517-1.75
			c-1.098,0-1.975,0.985-1.975,2.48v6.509h-1.098v-7.24c0-1.148-0.529-1.75-1.518-1.75c-1.096,0-1.974,0.985-1.974,2.48v6.509
			h-1.098V16.188z"/>
		<path fill="#231F20" d="M124.215,22.661c-0.165,2.061-1.298,3.428-3.127,3.428c-2.047,0-3.255-1.422-3.255-5.069
			c0-3.354,1.208-5.051,3.347-5.051c2.157,0,3.127,1.477,3.127,4.705v0.401h-5.302v0.456c0,2.789,0.986,3.647,2.065,3.647
			c1.152,0,1.865-0.821,2.047-2.517H124.215z M123.136,20.163c-0.036-2.407-0.713-3.283-2.065-3.283
			c-1.354,0-2.029,0.876-2.065,3.283H123.136z"/>
		<path fill="#231F20" d="M126.027,16.188h1.097v1.514h0.037c0.42-1.076,1.315-1.732,2.449-1.732c0.127,0,0.257,0.019,0.383,0.055
			v1.093c-0.181-0.036-0.365-0.055-0.529-0.055c-1.207,0-2.34,0.876-2.34,2.754v6.054h-1.097V16.188z"/>
		<path fill="#231F20" d="M132.647,21.056c-1.372-0.528-1.864-1.331-1.864-2.297c0-1.987,1.242-2.791,2.889-2.791
			c1.827,0,2.669,0.931,2.669,2.699v0.274h-1.098v-0.274c0-1.258-0.585-1.786-1.591-1.786c-1.278,0-1.773,0.674-1.773,1.641
			c0,0.674,0.22,1.204,1.316,1.623l1.591,0.602c1.316,0.493,1.811,1.404,1.811,2.462c0,1.66-0.951,2.88-2.999,2.88
			c-1.993,0-2.979-0.82-2.979-3.009v-0.31h1.098v0.255c0,1.422,0.621,2.152,1.863,2.152c1.17,0,1.92-0.657,1.92-1.733
			c0-0.856-0.349-1.404-1.316-1.786L132.647,21.056z"/>
	</g>
	<g>
		<path fill="#231F20" d="M40.86,34.433h3.952c2.207,0,3.431,1.26,3.431,3.319c0,1.595-0.63,3.023-2.393,3.358v0.036
			c1.651,0.149,2.207,1.097,2.264,3.137l0.036,1.446c0.019,0.724,0.093,1.429,0.557,1.948h-1.391
			c-0.278-0.464-0.335-1.149-0.353-1.854l-0.037-1.114c-0.073-2.335-0.501-3.079-2.635-3.079h-2.244v6.047H40.86V34.433z
			 M42.048,40.627h2.041c1.874,0,2.967-0.853,2.967-2.596c0-1.615-0.686-2.598-2.838-2.598h-2.17V40.627z"/>
		<path fill="#231F20" d="M56.242,44.413c-0.166,2.095-1.317,3.488-3.173,3.488c-2.077,0-3.302-1.448-3.302-5.159
			c0-3.413,1.225-5.138,3.395-5.138c2.188,0,3.174,1.503,3.174,4.785V42.8h-5.381v0.462c0,2.838,1.002,3.711,2.096,3.711
			c1.169,0,1.893-0.835,2.078-2.561H56.242z M55.148,41.871c-0.038-2.448-0.725-3.339-2.098-3.339c-1.372,0-2.059,0.891-2.096,3.339
			H55.148z"/>
		<path fill="#231F20" d="M63.165,46.194h-0.038c-0.24,1.039-1.076,1.706-2.3,1.706c-2.17,0-3.154-1.744-3.154-5.138
			c0-3.414,0.946-5.159,3.136-5.159c1.261,0,2.078,0.725,2.43,1.633h0.036v-1.41h1.002v13.116h-1.111V46.194z M61.013,46.972
			c1.13,0,2.152-0.575,2.152-4.21c0-1.708-0.148-2.672-0.631-3.358c-0.372-0.537-0.929-0.872-1.56-0.872
			c-1.075,0-2.114,0.648-2.114,4.23C58.86,46.397,59.899,46.972,61.013,46.972"/>
		<path fill="#231F20" d="M66.32,37.827h1.112v6.938c0,1.595,0.539,2.207,1.708,2.207c1.261,0,2.15-1.001,2.15-2.523v-6.622h1.113
			v9.851h-1.001v-1.373h-0.037c-0.557,1.095-1.521,1.596-2.524,1.596c-1.501,0-2.521-0.779-2.521-2.634V37.827z"/>
		<path fill="#231F20" d="M74.633,34.432h1.114v1.893h-1.114V34.432z M74.633,37.827h1.114v9.852h-1.114V37.827z"/>
		<path fill="#231F20" d="M77.975,37.827h1.111v1.539h0.039c0.426-1.094,1.335-1.762,2.485-1.762c0.129,0,0.26,0.02,0.389,0.055
			v1.114c-0.185-0.038-0.371-0.056-0.538-0.056c-1.224,0-2.375,0.892-2.375,2.801v6.159h-1.111V37.827z"/>
		<path fill="#231F20" d="M89.2,44.413c-0.169,2.095-1.318,3.488-3.174,3.488c-2.078,0-3.302-1.448-3.302-5.159
			c0-3.413,1.224-5.138,3.396-5.138c2.188,0,3.172,1.503,3.172,4.785V42.8h-5.38v0.462c0,2.838,1.003,3.711,2.096,3.711
			c1.17,0,1.893-0.835,2.078-2.561H89.2z M88.104,41.871c-0.037-2.448-0.724-3.339-2.097-3.339c-1.372,0-2.06,0.891-2.096,3.339
			H88.104z"/>
		<path fill="#231F20" d="M95.269,34.433h1.188v9.517c0,1.986,0.854,2.948,2.598,2.948s2.598-0.962,2.598-2.948v-9.517h1.187v9.535
			c0,2.78-1.354,3.933-3.784,3.933s-3.785-1.153-3.785-3.933V34.433z"/>
		<path fill="#231F20" d="M104.658,37.827h1.003v1.41h0.037c0.352-0.908,1.168-1.632,2.43-1.632c2.188,0,3.136,1.743,3.136,5.157
			c0,3.395-0.984,5.14-3.155,5.14c-1.223,0-2.059-0.668-2.3-1.708h-0.036v4.749h-1.114V37.827z M107.961,38.532
			c-0.631,0-1.188,0.333-1.56,0.872c-0.481,0.686-0.629,1.65-0.629,3.357c0,3.637,1.019,4.211,2.151,4.211
			c1.114,0,2.151-0.574,2.151-4.211C110.075,39.182,109.038,38.532,107.961,38.532"/>
		<polygon fill="#231F20" points="119.226,35.433 115.812,35.433 115.812,34.432 123.825,34.432 123.825,35.433 120.413,35.433 
			120.413,47.676 119.226,47.676 		"/>
		<path fill="#231F20" d="M126.519,37.603c2.169,0,3.395,1.726,3.395,5.139c0,3.435-1.226,5.158-3.395,5.158
			c-2.171,0-3.396-1.724-3.396-5.158C123.122,39.329,124.348,37.603,126.519,37.603 M126.519,46.972c1.242,0,2.206-1.076,2.206-4.23
			c0-3.135-0.964-4.21-2.206-4.21c-1.244,0-2.208,1.075-2.208,4.21C124.311,45.896,125.274,46.972,126.519,46.972"/>
		<path fill="#231F20" d="M138.305,47.677v-9.275h-2.616v-1.745h0.241c1.743,0,2.818-0.669,3.079-2.115h1.967v13.134H138.305z"/>
		<path fill="#231F20" d="M148.286,34.542c3.173,0,4.119,1.727,4.119,6.382c0,3.656-0.203,7.013-4.119,7.013
			c-3.172,0-4.119-1.726-4.119-6.381C144.167,37.92,144.373,34.542,148.286,34.542 M146.841,42.13c0,3.303,0.296,4.062,1.445,4.062
			c1.169,0,1.448-1.037,1.448-4.414V40.35c0-3.302-0.296-4.063-1.448-4.063c-1.168,0-1.445,1.038-1.445,4.415V42.13z"/>
		<polygon fill="#231F20" points="158.398,37.697 161.072,37.697 158.475,42.539 161.182,47.678 158.512,47.678 157.027,44.413 
			155.543,47.678 152.872,47.678 155.582,42.539 152.984,37.697 155.655,37.697 157.027,40.702 		"/>
		<polygon fill="#231F20" points="166.697,47.677 166.697,34.433 169.367,34.433 169.367,45.489 174.1,45.489 174.1,47.677 		"/>
		<path fill="#231F20" d="M177.402,43.077v0.798c0,1.169,0.316,2.32,1.262,2.32c0.854,0,1.209-0.65,1.355-1.874h2.301
			c-0.094,2.318-1.205,3.615-3.619,3.615c-3.707,0-3.855-2.857-3.855-5.341c0-2.672,0.518-5.157,3.967-5.157
			c2.99,0,3.654,2.002,3.654,5.063v0.575H177.402z M180.02,41.556c-0.055-1.521-0.242-2.374-1.299-2.374
			c-1.018,0-1.318,1.056-1.318,1.984v0.39H180.02z"/>
		<path fill="#231F20" d="M185.68,44.413v0.333c0,0.872,0.463,1.449,1.334,1.449c0.779,0,1.301-0.391,1.301-1.188
			c0-0.649-0.426-0.945-0.926-1.131l-1.803-0.65c-1.408-0.5-2.135-1.373-2.135-2.783c0-1.65,1.043-3.004,3.676-3.004
			c2.32,0,3.414,1.038,3.414,2.837v0.408h-2.299c0-1.002-0.301-1.504-1.133-1.504c-0.65,0-1.207,0.372-1.207,1.077
			c0,0.482,0.26,0.89,1.111,1.169l1.541,0.52c1.615,0.539,2.209,1.354,2.209,2.856c0,2.097-1.559,3.135-3.709,3.135
			c-2.877,0-3.674-1.261-3.674-3.172v-0.352H185.68z"/>
		<path fill="#231F20" d="M193.92,44.413v0.333c0,0.872,0.465,1.449,1.336,1.449c0.779,0,1.297-0.391,1.297-1.188
			c0-0.649-0.428-0.945-0.926-1.131l-1.799-0.65c-1.412-0.5-2.135-1.373-2.135-2.783c0-1.65,1.037-3.004,3.674-3.004
			c2.32,0,3.412,1.038,3.412,2.837v0.408h-2.301c0-1.002-0.295-1.504-1.131-1.504c-0.65,0-1.207,0.372-1.207,1.077
			c0,0.482,0.262,0.89,1.115,1.169l1.539,0.52c1.613,0.539,2.207,1.354,2.207,2.856c0,2.097-1.557,3.135-3.711,3.135
			c-2.875,0-3.67-1.261-3.67-3.172v-0.352H193.92z"/>
		<path fill="#231F20" d="M204.814,34.432h4.932c2.189,0,3.527,1.15,3.527,3.415c0,1.762-0.707,2.948-2.207,3.264v0.036
			c1.816,0.243,2.094,1.243,2.133,4.045c0.018,1.391,0.092,2.114,0.592,2.375v0.112h-2.895c-0.256-0.373-0.314-0.873-0.332-1.392
			l-0.074-2.542c-0.037-1.04-0.5-1.668-1.576-1.668h-1.43v5.603h-2.67V34.432z M207.484,40.221h1.111
			c1.281,0,2.004-0.557,2.004-1.985c0-1.225-0.648-1.837-1.855-1.837h-1.26V40.221z"/>
		<path fill="#231F20" d="M215.037,40.758v-0.243c0-2.3,1.578-3.078,3.508-3.078c3.039,0,3.617,1.261,3.617,3.06v5.251
			c0,0.926,0.055,1.352,0.314,1.928h-2.447c-0.166-0.314-0.24-0.706-0.314-1.038h-0.041c-0.59,1.038-1.313,1.298-2.541,1.298
			c-1.779,0-2.408-1.521-2.408-2.858c0-1.872,0.758-2.631,2.521-3.115l1.445-0.391c0.76-0.203,1.023-0.5,1.023-1.167
			c0-0.761-0.336-1.224-1.188-1.224c-0.781,0-1.189,0.52-1.189,1.298v0.279H215.037z M219.715,42.687
			c-0.354,0.259-0.781,0.426-1.098,0.501c-1.037,0.223-1.445,0.723-1.445,1.614c0,0.761,0.281,1.391,0.963,1.391
			c0.688,0,1.58-0.443,1.58-1.539V42.687z"/>
		<path fill="#231F20" d="M228.789,41.296c0-0.965-0.188-2.004-1.152-2.004c-1.26,0-1.463,1.114-1.463,3.413
			c0,2.468,0.221,3.488,1.369,3.488c0.855,0,1.246-0.723,1.246-2.336h2.445c0,2.616-1.094,4.08-3.799,4.08
			c-2.563,0-3.824-1.242-3.824-5.249c0-4.1,1.689-5.249,4.045-5.249c2.354,0,3.578,1.502,3.578,3.858H228.789z"/>
		<polygon fill="#231F20" points="235.227,34.433 235.227,41.425 235.264,41.425 237.844,37.697 240.66,37.697 237.789,41.63 
			241.092,47.677 238.27,47.677 236.137,43.577 235.227,44.764 235.227,47.677 232.666,47.677 232.666,34.433 		"/>
		<path fill="#231F20" d="M243.727,44.413v0.333c0,0.872,0.465,1.449,1.336,1.449c0.779,0,1.299-0.391,1.299-1.188
			c0-0.649-0.428-0.945-0.926-1.131l-1.801-0.65c-1.41-0.5-2.135-1.373-2.135-2.783c0-1.65,1.041-3.004,3.674-3.004
			c2.318,0,3.414,1.038,3.414,2.837v0.408h-2.301c0-1.002-0.297-1.504-1.133-1.504c-0.648,0-1.205,0.372-1.205,1.077
			c0,0.482,0.262,0.89,1.113,1.169l1.539,0.52c1.613,0.539,2.211,1.354,2.211,2.856c0,2.097-1.563,3.135-3.713,3.135
			c-2.875,0-3.674-1.261-3.674-3.172v-0.352H243.727z"/>
		<path fill="#231F20" d="M250.094,37.697h2.447v1.057h0.037c0.555-0.927,1.264-1.316,2.264-1.316c2.096,0,3.063,1.54,3.063,5.248
			c0,3.711-0.967,5.25-3.063,5.25c-0.965,0-1.613-0.388-2.154-1.188h-0.035v4.193h-2.559V37.697z M254.008,45.971
			c1.111,0,1.336-1.112,1.336-3.285c0-2.17-0.225-3.283-1.336-3.283c-1.133,0-1.355,1.112-1.355,3.283
			C252.652,44.858,252.875,45.971,254.008,45.971"/>
		<path fill="#231F20" d="M259.352,40.758v-0.243c0-2.3,1.578-3.078,3.506-3.078c3.043,0,3.619,1.261,3.619,3.06v5.251
			c0,0.926,0.055,1.352,0.314,1.928h-2.447c-0.168-0.314-0.244-0.706-0.318-1.038h-0.035c-0.594,1.038-1.318,1.298-2.543,1.298
			c-1.779,0-2.41-1.521-2.41-2.858c0-1.872,0.76-2.631,2.521-3.115l1.447-0.391c0.762-0.203,1.02-0.5,1.02-1.167
			c0-0.761-0.332-1.224-1.186-1.224c-0.779,0-1.186,0.52-1.186,1.298v0.279H259.352z M264.025,42.687
			c-0.352,0.259-0.777,0.426-1.094,0.501c-1.039,0.223-1.447,0.723-1.447,1.614c0,0.761,0.281,1.391,0.965,1.391
			c0.686,0,1.576-0.443,1.576-1.539V42.687z"/>
		<path fill="#231F20" d="M273.102,41.296c0-0.965-0.186-2.004-1.15-2.004c-1.262,0-1.465,1.114-1.465,3.413
			c0,2.468,0.223,3.488,1.371,3.488c0.855,0,1.244-0.723,1.244-2.336h2.447c0,2.616-1.092,4.08-3.803,4.08
			c-2.561,0-3.822-1.242-3.822-5.249c0-4.1,1.691-5.249,4.045-5.249c2.357,0,3.58,1.502,3.58,3.858H273.102z"/>
		<path fill="#231F20" d="M279.078,43.077v0.798c0,1.169,0.314,2.32,1.262,2.32c0.852,0,1.205-0.65,1.354-1.874h2.301
			c-0.094,2.318-1.207,3.615-3.617,3.615c-3.713,0-3.861-2.857-3.861-5.341c0-2.672,0.52-5.157,3.971-5.157
			c2.986,0,3.654,2.002,3.654,5.063v0.575H279.078z M281.693,41.556c-0.055-1.521-0.24-2.374-1.299-2.374
			c-1.021,0-1.316,1.056-1.316,1.984v0.39H281.693z"/>
	</g>
	<g>
		<g>
			<rect x="43.979" y="71.744" fill="#FFFFFF" width="59.134" height="119.271"/>
			<rect x="120.565" y="71.744" fill="#FFFFFF" width="59.134" height="119.271"/>
		</g>
		<g>
			<path fill="#6D6E70" d="M196.563,69.247h1.092l2.88,9.744h-0.93l-0.79-2.839h-3.411l-0.792,2.839h-0.929L196.563,69.247z
				 M198.623,75.415l-1.502-5.485h-0.027l-1.501,5.485H198.623z"/>
			<path fill="#6D6E70" d="M205.663,76.589c-0.123,1.542-0.969,2.566-2.307,2.566c-1.528,0-2.429-1.065-2.429-3.795
				c0-2.511,0.9-3.78,2.497-3.78c1.364,0,2.157,0.833,2.238,2.32h-0.817c-0.096-1.133-0.548-1.637-1.421-1.637
				c-0.888,0-1.624,0.546-1.624,3.111c0,2.731,0.778,3.098,1.543,3.098c0.832,0,1.364-0.614,1.502-1.883H205.663z"/>
			<path fill="#6D6E70" d="M207.162,72.426h-0.996v-0.683h0.996v-2.006h0.819v2.006h1.281v0.683h-1.281v5.199
				c0,0.574,0.246,0.766,0.778,0.766c0.162,0,0.328-0.028,0.503-0.082v0.682c-0.094,0.055-0.299,0.082-0.572,0.082
				c-1.104,0-1.528-0.3-1.528-1.27V72.426z"/>
			<path fill="#6D6E70" d="M210.15,71.743h0.82v5.104c0,1.174,0.393,1.625,1.253,1.625c0.931,0,1.585-0.738,1.585-1.857v-4.873
				h0.818v7.248h-0.736V77.98h-0.027c-0.41,0.807-1.119,1.175-1.857,1.175c-1.105,0-1.855-0.574-1.855-1.938V71.743z"/>
			<path fill="#6D6E70" d="M216.058,73.9c0-1.487,0.709-2.319,2.237-2.319c1.502,0,2.049,0.776,2.049,1.923v4.284
				c0,0.412,0.135,0.602,0.422,0.602h0.232v0.601c-0.149,0.054-0.272,0.082-0.382,0.082c-0.643,0-1.051-0.151-1.051-0.901v-0.246
				h-0.027c-0.328,0.956-1.066,1.229-1.869,1.229c-1.271,0-1.843-0.792-1.843-2.047c0-0.956,0.437-1.719,1.46-2.006l1.542-0.437
				c0.573-0.164,0.695-0.301,0.695-1.147c0-0.928-0.519-1.256-1.255-1.256c-0.97,0-1.392,0.587-1.392,1.638H216.058z
				 M219.523,74.896h-0.026c-0.081,0.247-0.547,0.396-0.876,0.478l-0.68,0.177c-0.819,0.218-1.243,0.642-1.243,1.501
				c0,0.846,0.438,1.42,1.147,1.42c0.997,0,1.678-0.75,1.678-2.048V74.896z"/>
			<rect x="222.074" y="69.248" fill="#6D6E70" width="0.819" height="9.743"/>
			<path fill="#6D6E70" d="M227.776,69.247h2.907c1.624,0,2.524,0.929,2.524,2.442c0,1.174-0.463,2.225-1.761,2.471v0.027
				c1.217,0.11,1.624,0.805,1.665,2.306l0.027,1.065c0.015,0.533,0.068,1.05,0.41,1.433h-1.023c-0.204-0.341-0.246-0.846-0.26-1.365
				l-0.027-0.819c-0.054-1.72-0.367-2.266-1.938-2.266h-1.652v4.449h-0.873V69.247z M228.649,73.804h1.502
				c1.379,0,2.184-0.626,2.184-1.91c0-1.187-0.505-1.911-2.088-1.911h-1.598V73.804z"/>
			<path fill="#6D6E70" d="M239.088,76.589c-0.123,1.541-0.97,2.565-2.334,2.565c-1.528,0-2.429-1.064-2.429-3.795
				c0-2.51,0.9-3.778,2.498-3.778c1.609,0,2.333,1.104,2.333,3.521v0.299h-3.958v0.341c0,2.089,0.736,2.73,1.543,2.73
				c0.86,0,1.392-0.615,1.527-1.884H239.088z M238.283,74.719c-0.027-1.801-0.532-2.457-1.542-2.457
				c-1.012,0-1.516,0.655-1.543,2.457H238.283z"/>
			<path fill="#6D6E70" d="M241.583,75.388c-1.022-0.396-1.391-0.996-1.391-1.719c0-1.488,0.928-2.088,2.156-2.088
				c1.364,0,1.99,0.696,1.99,2.02v0.205h-0.817V73.6c0-0.942-0.437-1.337-1.188-1.337c-0.956,0-1.324,0.504-1.324,1.227
				c0,0.505,0.165,0.901,0.983,1.215l1.188,0.451c0.982,0.368,1.35,1.05,1.35,1.842c0,1.241-0.709,2.157-2.237,2.157
				c-1.487,0-2.226-0.615-2.226-2.253v-0.23h0.819v0.189c0,1.065,0.466,1.611,1.394,1.611c0.871,0,1.433-0.49,1.433-1.297
				c0-0.641-0.26-1.05-0.983-1.337L241.583,75.388z"/>
			<path fill="#6D6E70" d="M245.745,71.743h0.819v5.104c0,1.174,0.394,1.625,1.254,1.625c0.93,0,1.585-0.738,1.585-1.857v-4.873
				h0.817v7.248h-0.736V77.98h-0.027c-0.41,0.807-1.119,1.175-1.856,1.175c-1.106,0-1.855-0.574-1.855-1.938V71.743z"/>
			<rect x="251.856" y="69.248" fill="#6D6E70" width="0.818" height="9.743"/>
			<path fill="#6D6E70" d="M254.612,72.426h-0.995v-0.683h0.995v-2.006h0.817v2.006h1.283v0.683h-1.283v5.199
				c0,0.574,0.246,0.766,0.78,0.766c0.163,0,0.327-0.028,0.503-0.082v0.682c-0.095,0.055-0.299,0.082-0.573,0.082
				c-1.104,0-1.527-0.3-1.527-1.27V72.426z"/>
			<path fill="#6D6E70" d="M258.747,75.388c-1.024-0.396-1.394-0.996-1.394-1.719c0-1.488,0.928-2.088,2.157-2.088
				c1.364,0,1.992,0.696,1.992,2.02v0.205h-0.819V73.6c0-0.942-0.437-1.337-1.188-1.337c-0.954,0-1.323,0.504-1.323,1.227
				c0,0.505,0.164,0.901,0.982,1.215l1.188,0.451c0.983,0.368,1.352,1.05,1.352,1.842c0,1.241-0.709,2.157-2.238,2.157
				c-1.486,0-2.225-0.615-2.225-2.253v-0.23h0.819v0.189c0,1.065,0.464,1.611,1.392,1.611c0.873,0,1.433-0.49,1.433-1.297
				c0-0.641-0.26-1.05-0.981-1.337L258.747,75.388z"/>
			<path fill="#6D6E70" d="M266.482,72.426h-0.997v-0.683h0.997v-0.859c0-0.997,0.205-1.747,1.582-1.747
				c0.245,0,0.368,0.014,0.519,0.04v0.684c-0.122-0.028-0.244-0.042-0.394-0.042c-0.604,0-0.888,0.233-0.888,1.065v0.859h1.281
				v0.683h-1.281v6.564h-0.819V72.426z"/>
			<path fill="#6D6E70" d="M271.64,71.58c1.597,0,2.497,1.27,2.497,3.78c0,2.525-0.9,3.795-2.497,3.795s-2.497-1.27-2.497-3.795
				C269.143,72.85,270.043,71.58,271.64,71.58 M271.64,78.472c0.913,0,1.624-0.792,1.624-3.112c0-2.307-0.711-3.097-1.624-3.097
				c-0.915,0-1.624,0.791-1.624,3.097C270.016,77.681,270.725,78.472,271.64,78.472"/>
			<path fill="#6D6E70" d="M275.335,71.743h0.819v1.133h0.027c0.314-0.806,0.982-1.295,1.83-1.295c0.096,0,0.189,0.013,0.285,0.04
				v0.819c-0.136-0.027-0.272-0.042-0.396-0.042c-0.9,0-1.747,0.655-1.747,2.061v4.531h-0.819V71.743z"/>
			<polygon fill="#6D6E70" points="194.462,85.619 195.635,85.619 199.36,94.108 199.388,94.108 199.388,85.619 200.26,85.619 
				200.26,95.363 199.087,95.363 195.362,86.873 195.333,86.873 195.333,95.363 194.462,95.363 			"/>
			<path fill="#6D6E70" d="M201.869,85.619h0.819v1.391h-0.819V85.619z M201.869,88.117h0.819v7.246h-0.819V88.117z"/>
			<path fill="#6D6E70" d="M204.379,88.117h0.737v1.009h0.028c0.381-0.805,1.036-1.174,1.841-1.174c0.875,0,1.406,0.533,1.516,1.27
				h0.027c0.329-0.806,0.913-1.27,1.843-1.27c1.011,0,1.679,0.573,1.679,1.87v5.541h-0.819v-5.418c0-0.859-0.396-1.31-1.134-1.31
				c-0.817,0-1.473,0.736-1.473,1.855v4.873h-0.819v-5.418c0-0.859-0.395-1.31-1.133-1.31c-0.818,0-1.473,0.736-1.473,1.855v4.873
				h-0.82V88.117z"/>
			<path fill="#6D6E70" d="M213.603,85.619h0.819v3.589h0.026c0.179-0.764,0.792-1.256,1.692-1.256c1.597,0,2.32,1.283,2.32,3.781
				c0,2.512-0.724,3.794-2.32,3.794c-0.858,0-1.556-0.533-1.774-1.365h-0.027v1.202h-0.736V85.619z M216.006,94.844
				c0.819,0,1.582-0.423,1.582-3.111c0-2.676-0.763-3.098-1.582-3.098c-0.833,0-1.584,0.422-1.584,3.098
				C214.422,94.421,215.173,94.844,216.006,94.844"/>
			<rect x="219.797" y="85.619" fill="#6D6E70" width="0.819" height="9.744"/>
			<path fill="#6D6E70" d="M226.715,92.96c-0.124,1.543-0.971,2.566-2.333,2.566c-1.53,0-2.431-1.065-2.431-3.793
				c0-2.51,0.9-3.781,2.497-3.781c1.611,0,2.334,1.105,2.334,3.522v0.299h-3.958v0.341c0,2.09,0.738,2.73,1.543,2.73
				c0.859,0,1.392-0.614,1.528-1.884H226.715z M225.91,91.091c-0.028-1.802-0.531-2.457-1.543-2.457
				c-1.01,0-1.516,0.655-1.543,2.457H225.91z"/>
			<path fill="#6D6E70" d="M237.234,92.061c-0.122,2.225-1.146,3.466-2.893,3.466c-1.994,0-3.113-1.541-3.113-5.035
				c0-3.493,1.119-5.037,3.113-5.037c1.979,0,2.795,1.406,2.795,3.003h-0.871c0-1.325-0.67-2.267-1.924-2.267
				c-1.394,0-2.239,1.147-2.239,4.3c0,3.152,0.846,4.299,2.239,4.299c1.228,0,1.924-1.052,2.02-2.729H237.234z"/>
			<path fill="#6D6E70" d="M238.421,88.117h0.818v5.104c0,1.173,0.394,1.624,1.255,1.624c0.929,0,1.584-0.737,1.584-1.856v-4.872
				h0.817v7.246h-0.736v-1.009h-0.026c-0.41,0.805-1.12,1.174-1.857,1.174c-1.106,0-1.854-0.574-1.854-1.939V88.117z"/>
			<path fill="#6D6E70" d="M245.624,91.76c-1.025-0.396-1.393-0.996-1.393-1.72c0-1.487,0.927-2.088,2.156-2.088
				c1.364,0,1.991,0.696,1.991,2.02v0.206h-0.818v-0.206c0-0.941-0.437-1.336-1.188-1.336c-0.955,0-1.322,0.504-1.322,1.228
				c0,0.504,0.164,0.901,0.98,1.215l1.188,0.45c0.983,0.367,1.352,1.051,1.352,1.842c0,1.241-0.709,2.157-2.237,2.157
				c-1.487,0-2.226-0.615-2.226-2.251v-0.233h0.819v0.191c0,1.064,0.463,1.61,1.392,1.61c0.873,0,1.433-0.491,1.433-1.296
				c0-0.641-0.261-1.051-0.982-1.338L245.624,91.76z"/>
			<path fill="#6D6E70" d="M250.085,88.799h-0.996v-0.682h0.996V86.11h0.817v2.007h1.283v0.682h-1.283v5.199
				c0,0.573,0.245,0.765,0.78,0.765c0.162,0,0.327-0.028,0.503-0.082v0.681c-0.095,0.056-0.3,0.083-0.574,0.083
				c-1.104,0-1.526-0.301-1.526-1.271V88.799z"/>
			<path fill="#6D6E70" d="M255.188,87.952c1.596,0,2.495,1.27,2.495,3.781c0,2.524-0.899,3.794-2.495,3.794
				c-1.599,0-2.498-1.27-2.498-3.794C252.69,89.222,253.59,87.952,255.188,87.952 M255.188,94.844c0.913,0,1.622-0.791,1.622-3.111
				c0-2.307-0.709-3.098-1.622-3.098c-0.914,0-1.626,0.792-1.626,3.098C253.563,94.054,254.274,94.844,255.188,94.844"/>
			<path fill="#6D6E70" d="M258.938,88.117h0.736v1.009h0.028c0.382-0.805,1.037-1.174,1.842-1.174c0.875,0,1.405,0.533,1.516,1.27
				h0.027c0.328-0.806,0.912-1.27,1.842-1.27c1.011,0,1.679,0.573,1.679,1.87v5.541h-0.819v-5.418c0-0.859-0.396-1.31-1.134-1.31
				c-0.817,0-1.473,0.736-1.473,1.855v4.873h-0.818v-5.418c0-0.859-0.396-1.31-1.134-1.31c-0.817,0-1.473,0.736-1.473,1.855v4.873
				h-0.819V88.117z"/>
			<path fill="#6D6E70" d="M272.706,92.96c-0.123,1.543-0.969,2.566-2.333,2.566c-1.529,0-2.429-1.065-2.429-3.793
				c0-2.51,0.899-3.781,2.497-3.781c1.609,0,2.333,1.105,2.333,3.522v0.299h-3.957v0.341c0,2.09,0.736,2.73,1.543,2.73
				c0.858,0,1.391-0.614,1.526-1.884H272.706z M271.901,91.091c-0.027-1.802-0.533-2.457-1.541-2.457
				c-1.013,0-1.517,0.655-1.543,2.457H271.901z"/>
			<path fill="#6D6E70" d="M274.056,88.117h0.819v1.132h0.027c0.314-0.806,0.981-1.297,1.828-1.297c0.096,0,0.191,0.013,0.286,0.042
				v0.818c-0.137-0.026-0.271-0.04-0.396-0.04c-0.9,0-1.745,0.655-1.745,2.06v4.531h-0.819V88.117z"/>
			<path fill="#6D6E70" d="M278.995,91.76c-1.022-0.396-1.392-0.996-1.392-1.72c0-1.487,0.928-2.088,2.156-2.088
				c1.365,0,1.991,0.696,1.991,2.02v0.206h-0.817v-0.206c0-0.941-0.438-1.336-1.188-1.336c-0.957,0-1.325,0.504-1.325,1.228
				c0,0.504,0.164,0.901,0.984,1.215l1.187,0.45c0.982,0.367,1.351,1.051,1.351,1.842c0,1.241-0.71,2.157-2.238,2.157
				c-1.486,0-2.225-0.615-2.225-2.251v-0.233h0.819v0.191c0,1.064,0.466,1.61,1.393,1.61c0.872,0,1.434-0.491,1.434-1.296
				c0-0.641-0.26-1.051-0.983-1.338L278.995,91.76z"/>
			<rect x="192.573" y="171.897" fill="#FFFFFF" width="63.707" height="22.088"/>
			<path fill="#89C54F" d="M216.402,174.931l0.224,0.002v0.382h0.023c0.015-0.085,0.049-0.124,0.085-0.192
				c0.045-0.063,0.099-0.103,0.151-0.146c0.06-0.023,0.111-0.063,0.172-0.084c0.077-0.021,0.128-0.021,0.207-0.021
				c0.129,0.002,0.24,0.021,0.332,0.042c0.094,0.045,0.17,0.108,0.226,0.171c0.057,0.085,0.09,0.17,0.112,0.274
				c0.041,0.108,0.041,0.237,0.041,0.365v1.419l-0.244-0.001v-1.379c0-0.105,0-0.19-0.024-0.255
				c-0.017-0.082-0.034-0.167-0.072-0.213c-0.038-0.065-0.094-0.104-0.148-0.149c-0.076-0.039-0.151-0.063-0.245-0.064
				c-0.097,0.002-0.184,0.023-0.26,0.064c-0.075,0.045-0.134,0.086-0.188,0.169c-0.06,0.063-0.096,0.148-0.108,0.232
				c-0.036,0.084-0.06,0.194-0.06,0.299v1.294h-0.224V174.931z"/>
			<path fill="#89C54F" d="M218.437,174.937l0.225,0.002v2.206l-0.225,0.001V174.937z M219.806,174.072l0.174-0.002v0.3
				l-0.174-0.002V174.072z"/>
			<path fill="#89C54F" d="M219.127,174.938h0.226v0.361h0.02c0.051-0.129,0.134-0.232,0.242-0.316
				c0.094-0.087,0.224-0.106,0.394-0.105c0.132,0,0.241,0.021,0.334,0.105c0.114,0.063,0.188,0.169,0.225,0.32
				c0.052-0.151,0.129-0.258,0.24-0.319c0.112-0.084,0.244-0.104,0.374-0.106c0.429,0.002,0.639,0.257,0.639,0.766v1.507
				l-0.243,0.001v-1.487c0-0.189-0.019-0.316-0.094-0.423c-0.078-0.088-0.188-0.149-0.356-0.151
				c-0.113,0.002-0.185,0.041-0.259,0.085c-0.079,0.044-0.118,0.084-0.172,0.171c-0.038,0.063-0.053,0.147-0.077,0.253
				c-0.013,0.084-0.013,0.189-0.013,0.298v1.253h-0.244v-1.508c0-0.065-0.02-0.148-0.02-0.213c-0.019-0.065-0.036-0.129-0.07-0.17
				c-0.04-0.042-0.08-0.084-0.132-0.106c-0.042-0.041-0.115-0.063-0.188-0.064c-0.096,0-0.188,0.022-0.262,0.063
				c-0.076,0.044-0.128,0.105-0.185,0.171c-0.043,0.086-0.083,0.17-0.103,0.274c-0.017,0.083-0.031,0.192-0.031,0.321v1.229h-0.245
				V174.938z"/>
			<path fill="#89C54F" d="M223.776,176.054c0-0.129-0.021-0.236-0.039-0.343c-0.016-0.125-0.052-0.214-0.11-0.318
				c-0.054-0.084-0.112-0.147-0.187-0.211c-0.089-0.045-0.185-0.084-0.301-0.086c-0.131,0-0.218,0.041-0.313,0.083
				c-0.095,0.063-0.147,0.128-0.203,0.212c-0.06,0.106-0.096,0.19-0.132,0.318c-0.021,0.106-0.021,0.212-0.021,0.339
				c0,0.108,0,0.214,0.021,0.342c0.036,0.104,0.072,0.212,0.132,0.297c0.056,0.083,0.108,0.147,0.203,0.213
				c0.096,0.063,0.183,0.083,0.313,0.081c0.116,0.002,0.212-0.018,0.301-0.081c0.074-0.063,0.133-0.128,0.187-0.212
				c0.059-0.084,0.095-0.19,0.11-0.295C223.756,176.263,223.776,176.159,223.776,176.054 M222.229,174.094h0.24v1.254
				c0.021-0.063,0.058-0.148,0.111-0.191c0.042-0.063,0.098-0.126,0.15-0.169c0.075-0.021,0.133-0.065,0.207-0.085
				c0.058-0.02,0.133-0.02,0.201-0.02c0.156,0,0.282,0.021,0.395,0.083c0.115,0.065,0.188,0.151,0.261,0.258
				c0.074,0.106,0.133,0.232,0.17,0.382c0.04,0.128,0.057,0.275,0.057,0.444c0,0.151-0.017,0.301-0.057,0.449
				c-0.037,0.127-0.096,0.251-0.17,0.361c-0.073,0.103-0.146,0.189-0.261,0.253c-0.112,0.063-0.238,0.104-0.395,0.104
				c-0.144,0-0.295-0.041-0.423-0.128c-0.116-0.084-0.208-0.213-0.268-0.36v0.424h-0.22V174.094z"/>
			<rect x="224.337" y="174.098" fill="#89C54F" width="0.244" height="3.06"/>
			<path fill="#89C54F" d="M226.394,175.887c0-0.088-0.02-0.19-0.039-0.299c-0.036-0.083-0.075-0.168-0.132-0.233
				c-0.036-0.083-0.104-0.146-0.189-0.19c-0.068-0.042-0.143-0.064-0.258-0.062c-0.091-0.002-0.168,0.019-0.258,0.061
				c-0.08,0.046-0.138,0.104-0.192,0.19c-0.054,0.065-0.093,0.149-0.128,0.256c-0.018,0.081-0.038,0.188-0.054,0.274
				L226.394,175.887z M225.144,176.118c0,0.107,0.016,0.211,0.036,0.298c0.018,0.104,0.053,0.212,0.11,0.274
				c0.056,0.086,0.111,0.17,0.203,0.213c0.076,0.063,0.174,0.085,0.282,0.085c0.189,0,0.315-0.039,0.411-0.146
				c0.093-0.107,0.168-0.256,0.207-0.424h0.24c-0.06,0.253-0.149,0.443-0.279,0.593c-0.132,0.128-0.321,0.214-0.579,0.214
				c-0.146-0.003-0.282-0.044-0.396-0.107c-0.108-0.065-0.2-0.151-0.258-0.258c-0.077-0.108-0.13-0.232-0.168-0.36
				c-0.039-0.147-0.05-0.299-0.05-0.446c0-0.149,0.011-0.298,0.05-0.444c0.038-0.128,0.091-0.256,0.168-0.362
				c0.058-0.106,0.149-0.213,0.258-0.274c0.113-0.063,0.249-0.084,0.396-0.084c0.172,0,0.303,0.021,0.411,0.107
				c0.111,0.062,0.188,0.146,0.261,0.275c0.077,0.105,0.127,0.257,0.153,0.403c0.033,0.149,0.033,0.297,0.033,0.445L225.144,176.118
				z"/>
			<path fill="#89C54F" d="M228.15,175.592c0-0.084-0.021-0.146-0.061-0.214c-0.016-0.057-0.054-0.105-0.109-0.146
				c-0.038-0.043-0.096-0.085-0.153-0.085c-0.076-0.022-0.13-0.043-0.202-0.043c-0.038,0-0.094,0.021-0.147,0.021
				c-0.062,0.021-0.114,0.042-0.153,0.063c-0.054,0.043-0.072,0.063-0.109,0.129c-0.021,0.043-0.037,0.104-0.037,0.167
				s0.016,0.106,0.037,0.15c0.019,0.044,0.056,0.086,0.095,0.106c0.035,0.042,0.092,0.064,0.131,0.087
				c0.052,0.021,0.091,0.021,0.129,0.037l0.315,0.092c0.074-0.002,0.151,0.02,0.205,0.061c0.072,0.022,0.133,0.064,0.188,0.107
				c0.035,0.043,0.096,0.104,0.114,0.192c0.037,0.065,0.054,0.148,0.054,0.232c0,0.125-0.017,0.233-0.072,0.319
				c-0.04,0.086-0.116,0.147-0.189,0.208c-0.072,0.047-0.148,0.089-0.242,0.107c-0.096,0.023-0.191,0.043-0.283,0.043
				c-0.219,0-0.407-0.065-0.54-0.191c-0.144-0.129-0.222-0.318-0.258-0.596h0.243c0.015,0.191,0.073,0.316,0.187,0.406
				c0.089,0.106,0.222,0.146,0.388,0.146c0.063,0.002,0.11,0,0.168-0.019c0.074-0.021,0.134-0.04,0.189-0.064
				c0.038-0.043,0.093-0.082,0.126-0.151c0.022-0.038,0.042-0.101,0.042-0.186c0-0.065,0-0.106-0.042-0.15
				c-0.012-0.062-0.05-0.085-0.088-0.127c-0.038-0.021-0.08-0.042-0.132-0.065c-0.058-0.02-0.115-0.042-0.168-0.062l-0.297-0.067
				c-0.076-0.021-0.153-0.063-0.207-0.084c-0.077-0.023-0.131-0.063-0.187-0.105c-0.04-0.046-0.074-0.105-0.108-0.17
				c-0.022-0.064-0.039-0.151-0.039-0.234c0-0.104,0.017-0.213,0.073-0.296c0.034-0.066,0.095-0.126,0.168-0.192
				c0.074-0.042,0.146-0.086,0.224-0.104c0.091-0.021,0.186-0.021,0.258-0.021c0.092,0,0.188,0,0.283,0.041
				c0.074,0.021,0.147,0.067,0.22,0.126c0.061,0.066,0.116,0.131,0.151,0.216c0.039,0.105,0.061,0.192,0.061,0.318L228.15,175.592z"
				/>
			<path fill="#89C54F" d="M229.155,174.958h0.392v0.213l-0.392-0.001v1.487c0,0.105,0.02,0.169,0.038,0.211
				c0.016,0.066,0.074,0.088,0.166,0.088c0.058,0,0.13,0,0.188,0v0.212c-0.017-0.001-0.058,0.021-0.095,0.021
				c-0.035,0-0.073-0.003-0.107,0c-0.151,0-0.266-0.042-0.337-0.108c-0.06-0.083-0.095-0.211-0.076-0.403v-1.508h-0.355v-0.211
				h0.355v-0.679l0.224-0.001V174.958z"/>
			<path fill="#89C54F" d="M230.576,175.11c-0.112,0-0.227,0.041-0.301,0.082c-0.094,0.065-0.169,0.131-0.218,0.214
				c-0.063,0.084-0.098,0.19-0.133,0.296c-0.026,0.128-0.042,0.234-0.042,0.362c0,0.106,0.016,0.232,0.042,0.341
				c0.035,0.104,0.07,0.21,0.133,0.295c0.049,0.085,0.124,0.171,0.218,0.214c0.074,0.062,0.188,0.083,0.301,0.083
				c0.113,0.002,0.203-0.019,0.297-0.081c0.078-0.042,0.151-0.128,0.204-0.212c0.059-0.086,0.096-0.192,0.132-0.298
				c0.02-0.105,0.034-0.234,0.034-0.338c0-0.13-0.015-0.235-0.034-0.364c-0.036-0.105-0.073-0.21-0.132-0.297
				c-0.053-0.084-0.126-0.149-0.204-0.213C230.779,175.151,230.689,175.11,230.576,175.11 M230.576,174.898
				c0.149,0.003,0.281,0.021,0.392,0.085c0.109,0.063,0.205,0.147,0.275,0.255c0.081,0.106,0.132,0.232,0.195,0.361
				c0.039,0.148,0.052,0.298,0.052,0.471c0,0.146-0.013,0.295-0.052,0.442c-0.063,0.148-0.114,0.254-0.195,0.361
				c-0.07,0.103-0.166,0.19-0.275,0.254c-0.11,0.063-0.242,0.104-0.392,0.104c-0.152,0-0.28-0.043-0.395-0.104
				c-0.124-0.066-0.222-0.152-0.299-0.257c-0.074-0.108-0.128-0.215-0.166-0.362c-0.058-0.146-0.074-0.296-0.074-0.447
				c0-0.17,0.017-0.317,0.074-0.466c0.038-0.129,0.092-0.255,0.166-0.358c0.077-0.108,0.175-0.193,0.299-0.256
				C230.296,174.918,230.424,174.898,230.576,174.898"/>
			<path fill="#89C54F" d="M231.789,174.961l0.205,0.002v0.51h0.02c0.054-0.168,0.146-0.318,0.279-0.426
				c0.11-0.083,0.276-0.122,0.444-0.122v0.272c-0.11,0.001-0.2,0.001-0.295,0.043c-0.073,0.042-0.168,0.105-0.222,0.169
				c-0.061,0.063-0.111,0.149-0.153,0.255c-0.037,0.106-0.054,0.212-0.054,0.319v1.188h-0.225V174.961z"/>
			<path fill="#89C54F" d="M234.122,175.967L234.122,175.967c-0.022,0.019-0.038,0.041-0.096,0.063
				c-0.035,0.02-0.072,0.02-0.109,0.02c-0.094,0.023-0.199,0.045-0.301,0.063c-0.106,0.021-0.202,0.043-0.299,0.064
				c-0.093,0.041-0.163,0.085-0.218,0.146c-0.064,0.044-0.083,0.127-0.083,0.234c0,0.085,0.019,0.15,0.042,0.192
				c0.021,0.065,0.052,0.105,0.096,0.124c0.032,0.045,0.089,0.088,0.128,0.108c0.054,0.02,0.11,0.02,0.172,0.021
				c0.092,0,0.186-0.021,0.264-0.039c0.07-0.044,0.146-0.088,0.216-0.148c0.058-0.047,0.093-0.13,0.13-0.214
				c0.036-0.085,0.059-0.189,0.059-0.297V175.967z M232.871,175.624c0-0.256,0.073-0.446,0.229-0.554
				c0.144-0.126,0.33-0.166,0.556-0.165c0.08-0.001,0.168,0,0.246,0.022c0.09,0.017,0.162,0.041,0.237,0.104
				c0.061,0.042,0.114,0.125,0.167,0.214c0.042,0.086,0.058,0.214,0.058,0.358v1.168c0,0.108,0.056,0.174,0.151,0.174
				c0.017,0,0.038,0,0.074-0.023v0.235c-0.036,0.002-0.058,0-0.074,0c-0.036,0.021-0.057,0.021-0.096,0.021
				c-0.056,0-0.113-0.021-0.127-0.042c-0.039-0.023-0.076-0.047-0.093-0.065c-0.02-0.04-0.04-0.085-0.04-0.125
				c0-0.048-0.021-0.107-0.021-0.15c-0.039,0.063-0.091,0.126-0.125,0.17c-0.041,0.063-0.097,0.104-0.15,0.146
				c-0.063,0.043-0.112,0.066-0.186,0.085c-0.08,0.02-0.151,0.041-0.248,0.041c-0.094,0.002-0.166-0.021-0.263-0.041
				c-0.067-0.022-0.132-0.065-0.202-0.127c-0.06-0.043-0.094-0.106-0.132-0.192c-0.034-0.085-0.058-0.192-0.058-0.297
				c0-0.147,0.042-0.277,0.096-0.361c0.056-0.085,0.134-0.149,0.239-0.192c0.098-0.041,0.207-0.081,0.344-0.105
				c0.108-0.019,0.24-0.021,0.369-0.04c0.061-0.001,0.094-0.021,0.131-0.021c0.037-0.022,0.072-0.041,0.094-0.043
				c0.016-0.021,0.036-0.063,0.052-0.085c0.022-0.042,0.022-0.105,0.022-0.149c0-0.107,0-0.169-0.038-0.231
				c-0.021-0.066-0.058-0.106-0.111-0.128c-0.039-0.045-0.089-0.067-0.149-0.085c-0.072,0-0.129-0.022-0.207-0.022
				c-0.146-0.002-0.262,0.04-0.373,0.127c-0.089,0.086-0.133,0.211-0.144,0.381H232.871z"/>
			<path fill="#89C54F" d="M235.54,176.925c0.092-0.002,0.189-0.022,0.262-0.085c0.096-0.043,0.149-0.104,0.207-0.191
				c0.055-0.083,0.096-0.166,0.108-0.273c0.043-0.105,0.043-0.215,0.043-0.342c0-0.106,0-0.212-0.021-0.318
				c-0.035-0.106-0.076-0.212-0.116-0.298c-0.05-0.084-0.106-0.148-0.201-0.21c-0.074-0.045-0.17-0.085-0.282-0.085
				c-0.113-0.004-0.2,0.04-0.294,0.081c-0.074,0.063-0.131,0.129-0.188,0.214c-0.052,0.085-0.099,0.168-0.111,0.296
				c-0.036,0.104-0.036,0.21-0.036,0.317c0,0.13,0,0.236,0.036,0.343c0.013,0.106,0.06,0.189,0.111,0.275
				c0.058,0.085,0.114,0.147,0.201,0.19C235.34,176.902,235.427,176.923,235.54,176.925 M236.401,176.989
				c0,0.172-0.021,0.32-0.04,0.448c-0.035,0.127-0.091,0.254-0.146,0.34c-0.075,0.083-0.166,0.166-0.28,0.211
				c-0.094,0.042-0.245,0.059-0.395,0.063c-0.093,0-0.188,0-0.281-0.043c-0.087-0.02-0.179-0.064-0.253-0.106
				c-0.077-0.064-0.138-0.128-0.193-0.213c-0.033-0.085-0.074-0.194-0.074-0.3l0.244,0.002c0,0.086,0.04,0.149,0.058,0.213
				c0.04,0.04,0.092,0.086,0.146,0.126c0.039,0.046,0.09,0.067,0.165,0.067c0.059,0.02,0.112,0.042,0.188,0.042
				c0.227,0,0.377-0.085,0.483-0.233c0.094-0.129,0.137-0.34,0.137-0.615v-0.3c-0.056,0.149-0.137,0.258-0.243,0.342
				c-0.115,0.084-0.228,0.104-0.377,0.104c-0.146,0-0.281-0.022-0.394-0.085c-0.106-0.046-0.2-0.129-0.278-0.235
				c-0.074-0.104-0.13-0.232-0.149-0.362c-0.036-0.147-0.056-0.296-0.056-0.446c0-0.145,0.02-0.297,0.056-0.423
				c0.038-0.149,0.094-0.255,0.172-0.359c0.068-0.107,0.167-0.192,0.281-0.234c0.104-0.063,0.222-0.084,0.368-0.084
				c0.149,0,0.262,0.042,0.377,0.127c0.106,0.088,0.188,0.194,0.243,0.319v-0.381l0.241-0.002V176.989z"/>
			<path fill="#89C54F" d="M238.158,175.91c-0.023-0.085-0.023-0.192-0.056-0.298c-0.04-0.085-0.076-0.168-0.136-0.233
				c-0.033-0.086-0.109-0.146-0.183-0.191c-0.075-0.042-0.149-0.065-0.263-0.063c-0.092,0-0.168,0.021-0.245,0.062
				c-0.074,0.045-0.149,0.105-0.204,0.191c-0.055,0.063-0.093,0.148-0.113,0.257c-0.038,0.081-0.057,0.188-0.069,0.273
				L238.158,175.91z M236.89,176.143c0,0.106,0.013,0.21,0.031,0.295c0.038,0.108,0.077,0.214,0.11,0.278
				c0.059,0.084,0.114,0.168,0.209,0.213c0.079,0.063,0.167,0.083,0.281,0.083c0.188,0.002,0.314-0.04,0.412-0.146
				c0.107-0.106,0.169-0.253,0.201-0.425l0.24,0.002c-0.049,0.254-0.145,0.445-0.272,0.596c-0.136,0.127-0.318,0.208-0.581,0.208
				c-0.149,0-0.281-0.041-0.395-0.104c-0.109-0.066-0.206-0.152-0.259-0.259c-0.073-0.106-0.132-0.233-0.166-0.36
				c-0.042-0.146-0.042-0.297-0.042-0.447c0-0.147,0-0.296,0.042-0.445c0.034-0.126,0.093-0.254,0.166-0.36
				c0.053-0.106,0.149-0.212,0.259-0.274c0.113-0.063,0.245-0.084,0.395-0.084c0.17,0.002,0.294,0.021,0.412,0.106
				c0.107,0.063,0.201,0.147,0.259,0.274c0.072,0.107,0.134,0.257,0.148,0.404c0.034,0.15,0.058,0.299,0.034,0.446L236.89,176.143z"
				/>
			<polygon fill="#89C54F" points="213.679,174.267 212.802,174.777 213.679,175.267 214.557,174.781 			"/>
			<polygon fill="#89C54F" points="212.445,175.965 213.679,176.667 214.89,175.969 215.693,176.416 213.679,177.58 
				211.657,176.407 			"/>
			<polygon fill="#89C54F" points="212.953,175.183 213.679,175.585 214.387,175.186 215.056,175.566 213.679,176.349 
				212.279,175.539 			"/>
			<path fill="#89C54F" d="M216.402,174.931l0.224,0.002v0.382h0.023c0.015-0.085,0.049-0.124,0.085-0.192
				c0.045-0.063,0.099-0.103,0.151-0.146c0.06-0.023,0.111-0.063,0.172-0.084c0.077-0.021,0.128-0.021,0.207-0.021
				c0.129,0.002,0.24,0.021,0.332,0.042c0.094,0.045,0.17,0.108,0.226,0.171c0.057,0.085,0.09,0.17,0.112,0.274
				c0.041,0.108,0.041,0.237,0.041,0.365v1.419l-0.244-0.001v-1.379c0-0.105,0-0.19-0.024-0.255
				c-0.017-0.082-0.034-0.167-0.072-0.213c-0.038-0.065-0.094-0.104-0.148-0.149c-0.076-0.039-0.151-0.063-0.245-0.064
				c-0.097,0.002-0.184,0.023-0.26,0.064c-0.075,0.045-0.134,0.086-0.188,0.169c-0.06,0.063-0.096,0.148-0.108,0.232
				c-0.036,0.084-0.06,0.194-0.06,0.299v1.294h-0.224V174.931z"/>
			<path fill="#89C54F" d="M218.437,174.937l0.225,0.002v2.206l-0.225,0.001V174.937z M219.806,174.072l0.174-0.002v0.3
				l-0.174-0.002V174.072z"/>
			<path fill="#89C54F" d="M219.127,174.938h0.226v0.361h0.02c0.051-0.129,0.134-0.232,0.242-0.316
				c0.094-0.087,0.224-0.106,0.394-0.105c0.132,0,0.241,0.021,0.334,0.105c0.114,0.063,0.188,0.169,0.225,0.32
				c0.052-0.151,0.129-0.258,0.24-0.319c0.112-0.084,0.244-0.104,0.374-0.106c0.429,0.002,0.639,0.257,0.639,0.766v1.507
				l-0.243,0.001v-1.487c0-0.189-0.019-0.316-0.094-0.423c-0.078-0.088-0.188-0.149-0.356-0.151
				c-0.113,0.002-0.185,0.041-0.259,0.085c-0.079,0.044-0.118,0.084-0.172,0.171c-0.038,0.063-0.053,0.147-0.077,0.253
				c-0.013,0.084-0.013,0.189-0.013,0.298v1.253h-0.244v-1.508c0-0.065-0.02-0.148-0.02-0.213c-0.019-0.065-0.036-0.129-0.07-0.17
				c-0.04-0.042-0.08-0.084-0.132-0.106c-0.042-0.041-0.115-0.063-0.188-0.064c-0.096,0-0.188,0.022-0.262,0.063
				c-0.076,0.044-0.128,0.105-0.185,0.171c-0.043,0.086-0.083,0.17-0.103,0.274c-0.017,0.083-0.031,0.192-0.031,0.321v1.229h-0.245
				V174.938z"/>
			<path fill="#89C54F" d="M223.776,176.054c0-0.129-0.021-0.236-0.039-0.343c-0.016-0.125-0.052-0.214-0.11-0.318
				c-0.054-0.084-0.112-0.147-0.187-0.211c-0.089-0.045-0.185-0.084-0.301-0.086c-0.131,0-0.218,0.041-0.313,0.083
				c-0.095,0.063-0.147,0.128-0.203,0.212c-0.06,0.106-0.096,0.19-0.132,0.318c-0.021,0.106-0.021,0.212-0.021,0.339
				c0,0.108,0,0.214,0.021,0.342c0.036,0.104,0.072,0.212,0.132,0.297c0.056,0.083,0.108,0.147,0.203,0.213
				c0.096,0.063,0.183,0.083,0.313,0.081c0.116,0.002,0.212-0.018,0.301-0.081c0.074-0.063,0.133-0.128,0.187-0.212
				c0.059-0.084,0.095-0.19,0.11-0.295C223.756,176.263,223.776,176.159,223.776,176.054 M222.229,174.094h0.24v1.254
				c0.021-0.063,0.058-0.148,0.111-0.191c0.042-0.063,0.098-0.126,0.15-0.169c0.075-0.021,0.133-0.065,0.207-0.085
				c0.058-0.02,0.133-0.02,0.201-0.02c0.156,0,0.282,0.021,0.395,0.083c0.115,0.065,0.188,0.151,0.261,0.258
				c0.074,0.106,0.133,0.232,0.17,0.382c0.04,0.128,0.057,0.275,0.057,0.444c0,0.151-0.017,0.301-0.057,0.449
				c-0.037,0.127-0.096,0.251-0.17,0.361c-0.073,0.103-0.146,0.189-0.261,0.253c-0.112,0.063-0.238,0.104-0.395,0.104
				c-0.144,0-0.295-0.041-0.423-0.128c-0.116-0.084-0.208-0.213-0.268-0.36v0.424h-0.22V174.094z"/>
			<rect x="224.337" y="174.098" fill="#89C54F" width="0.244" height="3.06"/>
			<path fill="#89C54F" d="M226.394,175.887c0-0.088-0.02-0.19-0.039-0.299c-0.036-0.083-0.075-0.168-0.132-0.233
				c-0.036-0.083-0.104-0.146-0.189-0.19c-0.068-0.042-0.143-0.064-0.258-0.062c-0.091-0.002-0.168,0.019-0.258,0.061
				c-0.08,0.046-0.138,0.104-0.192,0.19c-0.054,0.065-0.093,0.149-0.128,0.256c-0.018,0.081-0.038,0.188-0.054,0.274
				L226.394,175.887z M225.144,176.118c0,0.107,0.016,0.211,0.036,0.298c0.018,0.104,0.053,0.212,0.11,0.274
				c0.056,0.086,0.111,0.17,0.203,0.213c0.076,0.063,0.174,0.085,0.282,0.085c0.189,0,0.315-0.039,0.411-0.146
				c0.093-0.107,0.168-0.256,0.207-0.424h0.24c-0.06,0.253-0.149,0.443-0.279,0.593c-0.132,0.128-0.321,0.214-0.579,0.214
				c-0.146-0.003-0.282-0.044-0.396-0.107c-0.108-0.065-0.2-0.151-0.258-0.258c-0.077-0.108-0.13-0.232-0.168-0.36
				c-0.039-0.147-0.05-0.299-0.05-0.446c0-0.149,0.011-0.298,0.05-0.444c0.038-0.128,0.091-0.256,0.168-0.362
				c0.058-0.106,0.149-0.213,0.258-0.274c0.113-0.063,0.249-0.084,0.396-0.084c0.172,0,0.303,0.021,0.411,0.107
				c0.111,0.062,0.188,0.146,0.261,0.275c0.077,0.105,0.127,0.257,0.153,0.403c0.033,0.149,0.033,0.297,0.033,0.445L225.144,176.118
				z"/>
			<path fill="#89C54F" d="M228.15,175.592c0-0.084-0.021-0.146-0.061-0.214c-0.016-0.057-0.054-0.105-0.109-0.146
				c-0.038-0.043-0.096-0.085-0.153-0.085c-0.076-0.022-0.13-0.043-0.202-0.043c-0.038,0-0.094,0.021-0.147,0.021
				c-0.062,0.021-0.114,0.042-0.153,0.063c-0.054,0.043-0.072,0.063-0.109,0.129c-0.021,0.043-0.037,0.104-0.037,0.167
				s0.016,0.106,0.037,0.15c0.019,0.044,0.056,0.086,0.095,0.106c0.035,0.042,0.092,0.064,0.131,0.087
				c0.052,0.021,0.091,0.021,0.129,0.037l0.315,0.092c0.074-0.002,0.151,0.02,0.205,0.061c0.072,0.022,0.133,0.064,0.188,0.107
				c0.035,0.043,0.096,0.104,0.114,0.192c0.037,0.065,0.054,0.148,0.054,0.232c0,0.125-0.017,0.233-0.072,0.319
				c-0.04,0.086-0.116,0.147-0.189,0.208c-0.072,0.047-0.148,0.089-0.242,0.107c-0.096,0.023-0.191,0.043-0.283,0.043
				c-0.219,0-0.407-0.065-0.54-0.191c-0.144-0.129-0.222-0.318-0.258-0.596h0.243c0.015,0.191,0.073,0.316,0.187,0.406
				c0.089,0.106,0.222,0.146,0.388,0.146c0.063,0.002,0.11,0,0.168-0.019c0.074-0.021,0.134-0.04,0.189-0.064
				c0.038-0.043,0.093-0.082,0.126-0.151c0.022-0.038,0.042-0.101,0.042-0.186c0-0.065,0-0.106-0.042-0.15
				c-0.012-0.062-0.05-0.085-0.088-0.127c-0.038-0.021-0.08-0.042-0.132-0.065c-0.058-0.02-0.115-0.042-0.168-0.062l-0.297-0.067
				c-0.076-0.021-0.153-0.063-0.207-0.084c-0.077-0.023-0.131-0.063-0.187-0.105c-0.04-0.046-0.074-0.105-0.108-0.17
				c-0.022-0.064-0.039-0.151-0.039-0.234c0-0.104,0.017-0.213,0.073-0.296c0.034-0.066,0.095-0.126,0.168-0.192
				c0.074-0.042,0.146-0.086,0.224-0.104c0.091-0.021,0.186-0.021,0.258-0.021c0.092,0,0.188,0,0.283,0.041
				c0.074,0.021,0.147,0.067,0.22,0.126c0.061,0.066,0.116,0.131,0.151,0.216c0.039,0.105,0.061,0.192,0.061,0.318L228.15,175.592z"
				/>
			<path fill="#89C54F" d="M229.155,174.958h0.392v0.213l-0.392-0.001v1.487c0,0.105,0.02,0.169,0.038,0.211
				c0.016,0.066,0.074,0.088,0.166,0.088c0.058,0,0.13,0,0.188,0v0.212c-0.017-0.001-0.058,0.021-0.095,0.021
				c-0.035,0-0.073-0.003-0.107,0c-0.151,0-0.266-0.042-0.337-0.108c-0.06-0.083-0.095-0.211-0.076-0.403v-1.508h-0.355v-0.211
				h0.355v-0.679l0.224-0.001V174.958z"/>
			<path fill="#89C54F" d="M230.576,175.11c-0.112,0-0.227,0.041-0.301,0.082c-0.094,0.065-0.169,0.131-0.218,0.214
				c-0.063,0.084-0.098,0.19-0.133,0.296c-0.026,0.128-0.042,0.234-0.042,0.362c0,0.106,0.016,0.232,0.042,0.341
				c0.035,0.104,0.07,0.21,0.133,0.295c0.049,0.085,0.124,0.171,0.218,0.214c0.074,0.062,0.188,0.083,0.301,0.083
				c0.113,0.002,0.203-0.019,0.297-0.081c0.078-0.042,0.151-0.128,0.204-0.212c0.059-0.086,0.096-0.192,0.132-0.298
				c0.02-0.105,0.034-0.234,0.034-0.338c0-0.13-0.015-0.235-0.034-0.364c-0.036-0.105-0.073-0.21-0.132-0.297
				c-0.053-0.084-0.126-0.149-0.204-0.213C230.779,175.151,230.689,175.11,230.576,175.11 M230.576,174.898
				c0.149,0.003,0.281,0.021,0.392,0.085c0.109,0.063,0.205,0.147,0.275,0.255c0.081,0.106,0.132,0.232,0.195,0.361
				c0.039,0.148,0.052,0.298,0.052,0.471c0,0.146-0.013,0.295-0.052,0.442c-0.063,0.148-0.114,0.254-0.195,0.361
				c-0.07,0.103-0.166,0.19-0.275,0.254c-0.11,0.063-0.242,0.104-0.392,0.104c-0.152,0-0.28-0.043-0.395-0.104
				c-0.124-0.066-0.222-0.152-0.299-0.257c-0.074-0.108-0.128-0.215-0.166-0.362c-0.058-0.146-0.074-0.296-0.074-0.447
				c0-0.17,0.017-0.317,0.074-0.466c0.038-0.129,0.092-0.255,0.166-0.358c0.077-0.108,0.175-0.193,0.299-0.256
				C230.296,174.918,230.424,174.898,230.576,174.898"/>
			<path fill="#89C54F" d="M231.789,174.961l0.205,0.002v0.51h0.02c0.054-0.168,0.146-0.318,0.279-0.426
				c0.11-0.083,0.276-0.122,0.444-0.122v0.272c-0.11,0.001-0.2,0.001-0.295,0.043c-0.073,0.042-0.168,0.105-0.222,0.169
				c-0.061,0.063-0.111,0.149-0.153,0.255c-0.037,0.106-0.054,0.212-0.054,0.319v1.188h-0.225V174.961z"/>
			<path fill="#89C54F" d="M234.122,175.967L234.122,175.967c-0.022,0.019-0.038,0.041-0.096,0.063
				c-0.035,0.02-0.072,0.02-0.109,0.02c-0.094,0.023-0.199,0.045-0.301,0.063c-0.106,0.021-0.202,0.043-0.299,0.064
				c-0.093,0.041-0.163,0.085-0.218,0.146c-0.064,0.044-0.083,0.127-0.083,0.234c0,0.085,0.019,0.15,0.042,0.192
				c0.021,0.065,0.052,0.105,0.096,0.124c0.032,0.045,0.089,0.088,0.128,0.108c0.054,0.02,0.11,0.02,0.172,0.021
				c0.092,0,0.186-0.021,0.264-0.039c0.07-0.044,0.146-0.088,0.216-0.148c0.058-0.047,0.093-0.13,0.13-0.214
				c0.036-0.085,0.059-0.189,0.059-0.297V175.967z M232.871,175.624c0-0.256,0.073-0.446,0.229-0.554
				c0.144-0.126,0.33-0.166,0.556-0.165c0.08-0.001,0.168,0,0.246,0.022c0.09,0.017,0.162,0.041,0.237,0.104
				c0.061,0.042,0.114,0.125,0.167,0.214c0.042,0.086,0.058,0.214,0.058,0.358v1.168c0,0.108,0.056,0.174,0.151,0.174
				c0.017,0,0.038,0,0.074-0.023v0.235c-0.036,0.002-0.058,0-0.074,0c-0.036,0.021-0.057,0.021-0.096,0.021
				c-0.056,0-0.113-0.021-0.127-0.042c-0.039-0.023-0.076-0.047-0.093-0.065c-0.02-0.04-0.04-0.085-0.04-0.125
				c0-0.048-0.021-0.107-0.021-0.15c-0.039,0.063-0.091,0.126-0.125,0.17c-0.041,0.063-0.097,0.104-0.15,0.146
				c-0.063,0.043-0.112,0.066-0.186,0.085c-0.08,0.02-0.151,0.041-0.248,0.041c-0.094,0.002-0.166-0.021-0.263-0.041
				c-0.067-0.022-0.132-0.065-0.202-0.127c-0.06-0.043-0.094-0.106-0.132-0.192c-0.034-0.085-0.058-0.192-0.058-0.297
				c0-0.147,0.042-0.277,0.096-0.361c0.056-0.085,0.134-0.149,0.239-0.192c0.098-0.041,0.207-0.081,0.344-0.105
				c0.108-0.019,0.24-0.021,0.369-0.04c0.061-0.001,0.094-0.021,0.131-0.021c0.037-0.022,0.072-0.041,0.094-0.043
				c0.016-0.021,0.036-0.063,0.052-0.085c0.022-0.042,0.022-0.105,0.022-0.149c0-0.107,0-0.169-0.038-0.231
				c-0.021-0.066-0.058-0.106-0.111-0.128c-0.039-0.045-0.089-0.067-0.149-0.085c-0.072,0-0.129-0.022-0.207-0.022
				c-0.146-0.002-0.262,0.04-0.373,0.127c-0.089,0.086-0.133,0.211-0.144,0.381H232.871z"/>
			<path fill="#89C54F" d="M235.54,176.925c0.092-0.002,0.189-0.022,0.262-0.085c0.096-0.043,0.149-0.104,0.207-0.191
				c0.055-0.083,0.096-0.166,0.108-0.273c0.043-0.105,0.043-0.215,0.043-0.342c0-0.106,0-0.212-0.021-0.318
				c-0.035-0.106-0.076-0.212-0.116-0.298c-0.05-0.084-0.106-0.148-0.201-0.21c-0.074-0.045-0.17-0.085-0.282-0.085
				c-0.113-0.004-0.2,0.04-0.294,0.081c-0.074,0.063-0.131,0.129-0.188,0.214c-0.052,0.085-0.099,0.168-0.111,0.296
				c-0.036,0.104-0.036,0.21-0.036,0.317c0,0.13,0,0.236,0.036,0.343c0.013,0.106,0.06,0.189,0.111,0.275
				c0.058,0.085,0.114,0.147,0.201,0.19C235.34,176.902,235.427,176.923,235.54,176.925 M236.401,176.989
				c0,0.172-0.021,0.32-0.04,0.448c-0.035,0.127-0.091,0.254-0.146,0.34c-0.075,0.083-0.166,0.166-0.28,0.211
				c-0.094,0.042-0.245,0.059-0.395,0.063c-0.093,0-0.188,0-0.281-0.043c-0.087-0.02-0.179-0.064-0.253-0.106
				c-0.077-0.064-0.138-0.128-0.193-0.213c-0.033-0.085-0.074-0.194-0.074-0.3l0.244,0.002c0,0.086,0.04,0.149,0.058,0.213
				c0.04,0.04,0.092,0.086,0.146,0.126c0.039,0.046,0.09,0.067,0.165,0.067c0.059,0.02,0.112,0.042,0.188,0.042
				c0.227,0,0.377-0.085,0.483-0.233c0.094-0.129,0.137-0.34,0.137-0.615v-0.3c-0.056,0.149-0.137,0.258-0.243,0.342
				c-0.115,0.084-0.228,0.104-0.377,0.104c-0.146,0-0.281-0.022-0.394-0.085c-0.106-0.046-0.2-0.129-0.278-0.235
				c-0.074-0.104-0.13-0.232-0.149-0.362c-0.036-0.147-0.056-0.296-0.056-0.446c0-0.145,0.02-0.297,0.056-0.423
				c0.038-0.149,0.094-0.255,0.172-0.359c0.068-0.107,0.167-0.192,0.281-0.234c0.104-0.063,0.222-0.084,0.368-0.084
				c0.149,0,0.262,0.042,0.377,0.127c0.106,0.088,0.188,0.194,0.243,0.319v-0.381l0.241-0.002V176.989z"/>
			<path fill="#89C54F" d="M238.158,175.91c-0.023-0.085-0.023-0.192-0.056-0.298c-0.04-0.085-0.076-0.168-0.136-0.233
				c-0.033-0.086-0.109-0.146-0.183-0.191c-0.075-0.042-0.149-0.065-0.263-0.063c-0.092,0-0.168,0.021-0.245,0.062
				c-0.074,0.045-0.149,0.105-0.204,0.191c-0.055,0.063-0.093,0.148-0.113,0.257c-0.038,0.081-0.057,0.188-0.069,0.273
				L238.158,175.91z M236.89,176.143c0,0.106,0.013,0.21,0.031,0.295c0.038,0.108,0.077,0.214,0.11,0.278
				c0.059,0.084,0.114,0.168,0.209,0.213c0.079,0.063,0.167,0.083,0.281,0.083c0.188,0.002,0.314-0.04,0.412-0.146
				c0.107-0.106,0.169-0.253,0.201-0.425l0.24,0.002c-0.049,0.254-0.145,0.445-0.272,0.596c-0.136,0.127-0.318,0.208-0.581,0.208
				c-0.149,0-0.281-0.041-0.395-0.104c-0.109-0.066-0.206-0.152-0.259-0.259c-0.073-0.106-0.132-0.233-0.166-0.36
				c-0.042-0.146-0.042-0.297-0.042-0.447c0-0.147,0-0.296,0.042-0.445c0.034-0.126,0.093-0.254,0.166-0.36
				c0.053-0.106,0.149-0.212,0.259-0.274c0.113-0.063,0.245-0.084,0.395-0.084c0.17,0.002,0.294,0.021,0.412,0.106
				c0.107,0.063,0.201,0.147,0.259,0.274c0.072,0.107,0.134,0.257,0.148,0.404c0.034,0.15,0.058,0.299,0.034,0.446L236.89,176.143z"
				/>
			<polygon fill="#89C54F" points="213.679,174.267 212.802,174.777 213.679,175.267 214.557,174.781 			"/>
			<polygon fill="#89C54F" points="212.445,175.965 213.679,176.667 214.89,175.969 215.693,176.416 213.679,177.58 
				211.657,176.407 			"/>
			<polygon fill="#89C54F" points="212.953,175.183 213.679,175.585 214.387,175.186 215.056,175.566 213.679,176.349 
				212.279,175.539 			"/>
			<rect x="194.813" y="179.119" fill="#89C54F" width="59.229" height="7.645"/>
			<path fill="#89C54F" d="M256.28,193.985h-63.707v-22.088h63.707V193.985z M254.856,173.343H194v19.198h60.856V173.343z"/>
			<path fill="#737477" d="M108.319,194.485H40.86V66.279h67.459V194.485z M72.712,73.402H47.219v5.672h25.493V73.402z
				 M101.842,73.402h-25.49v5.672h25.49V73.402z M72.712,83.029H47.219v5.673h25.493V83.029z M101.842,83.029h-25.49v5.673h25.49
				V83.029z M72.712,92.657H47.219v5.672h25.493V92.657z M101.842,92.657h-25.49v5.672h25.49V92.657z M72.712,102.285H47.219v5.672
				h25.493V102.285z M101.842,102.285h-25.49v5.672h25.49V102.285z M72.712,121.543H47.219v5.672h25.493V121.543z M101.842,121.543
				h-25.49v5.672h25.49V121.543z M72.712,131.17H47.219v5.673h25.493V131.17z M101.842,131.17h-25.49v5.673h25.49V131.17z
				 M72.712,140.798H47.219v5.673h25.493V140.798z M101.842,140.798h-25.49v5.673h25.49V140.798z M72.712,150.427H47.219v5.672
				h25.493V150.427z M101.842,150.427h-25.49v5.672h25.49V150.427z M72.712,160.054H47.219v5.673h25.493V160.054z M101.842,160.054
				h-25.49v5.673h25.49V160.054z M72.712,169.683H47.219v5.672h25.493V169.683z M101.842,169.683h-25.49v5.672h25.49V169.683z
				 M72.712,179.312H47.219v5.672h25.493V179.312z M101.842,179.312h-25.49v5.672h25.49V179.312z"/>
			<path fill="#737477" d="M183.893,194.485h-67.46V66.279h67.46V194.485z M148.284,73.402H122.79v5.672h25.494V73.402z
				 M177.414,73.402h-25.489v5.672h25.489V73.402z M148.284,83.029H122.79v5.673h25.494V83.029z M177.414,83.029h-25.489v5.673
				h25.489V83.029z M148.284,92.657H122.79v5.672h25.494V92.657z M177.414,92.657h-25.489v5.672h25.489V92.657z M148.284,102.285
				H122.79v5.672h25.494V102.285z M177.414,102.285h-25.489v5.672h25.489V102.285z M148.284,121.543H122.79v5.672h25.494V121.543z
				 M177.414,121.543h-25.489v5.672h25.489V121.543z M148.284,131.17H122.79v5.673h25.494V131.17z M177.414,131.17h-25.489v5.673
				h25.489V131.17z M148.284,140.798H122.79v5.673h25.494V140.798z M177.414,140.798h-25.489v5.673h25.489V140.798z
				 M148.284,150.427H122.79v5.672h25.494V150.427z M177.414,150.427h-25.489v5.672h25.489V150.427z M148.284,160.054H122.79v5.673
				h25.494V160.054z M177.414,160.054h-25.489v5.673h25.489V160.054z M148.284,169.683H122.79v5.672h25.494V169.683z
				 M177.414,169.683h-25.489v5.672h25.489V169.683z M148.284,179.312H122.79v5.672h25.494V179.312z M177.414,179.312h-25.489v5.672
				h25.489V179.312z"/>
		</g>
	</g>
</g>
</svg>
