<?xml version="1.0" encoding="utf-8"?>
<!-- Generator: Adobe Illustrator 14.0.0, SVG Export Plug-In . SVG Version: 6.00 Build 43363)  -->
<!DOCTYPE svg PUBLIC "-//W3C//DTD SVG 1.1//EN" "http://www.w3.org/Graphics/SVG/1.1/DTD/svg11.dtd">
<svg version="1.1" id="Layer_1" xmlns="http://www.w3.org/2000/svg" xmlns:xlink="http://www.w3.org/1999/xlink" x="0px" y="0px"
	 width="325px" height="207px" viewBox="0 0 325 207" enable-background="new 0 0 325 207" xml:space="preserve">
<path fill="#231F20" d="M779.496-622.948c3.07,0,4.795,2.376,4.795,7.759c0,5.383-1.725,7.759-4.795,7.759s-4.794-2.376-4.794-7.759
	C774.702-620.572,776.426-622.948,779.496-622.948 M779.496-608.566c2.145,0,3.449-1.766,3.449-6.623s-1.305-6.624-3.449-6.624
	c-2.146,0-3.448,1.767-3.448,6.624S777.351-608.566,779.496-608.566"/>
<path fill="#231F20" d="M786.565-618.848h1.261v7.864c0,1.808,0.61,2.502,1.936,2.502c1.43,0,2.438-1.136,2.438-2.86v-7.506h1.262
	v11.165h-1.136v-1.556h-0.041c-0.631,1.241-1.725,1.808-2.86,1.808c-1.703,0-2.859-0.883-2.859-2.985V-618.848z"/>
<path fill="#231F20" d="M795.904-618.848h1.261v1.745h0.042c0.484-1.241,1.514-1.997,2.818-1.997c0.146,0,0.294,0.021,0.44,0.063
	v1.261c-0.21-0.042-0.42-0.063-0.609-0.063c-1.389,0-2.691,1.01-2.691,3.175v6.981h-1.261V-618.848z"/>
<path fill="#231F20" d="M815.883-612.771c-0.189,3.427-1.768,5.341-4.459,5.341c-3.069,0-4.793-2.376-4.793-7.759
	s1.724-7.759,4.793-7.759c3.049,0,4.311,2.166,4.311,4.626h-1.346c0-2.04-1.029-3.491-2.965-3.491c-2.146,0-3.447,1.767-3.447,6.624
	s1.302,6.623,3.447,6.623c1.893,0,2.965-1.619,3.113-4.205H815.883z"/>
<path fill="#231F20" d="M817.715-618.848h1.262v7.864c0,1.808,0.609,2.502,1.935,2.502c1.43,0,2.438-1.136,2.438-2.86v-7.506h1.261
	v11.165h-1.134v-1.556h-0.042c-0.631,1.241-1.724,1.808-2.861,1.808c-1.702,0-2.858-0.883-2.858-2.985V-618.848z"/>
<path fill="#231F20" d="M828.82-613.233c-1.578-0.61-2.146-1.535-2.146-2.649c0-2.292,1.431-3.218,3.322-3.218
	c2.103,0,3.069,1.073,3.069,3.112v0.316h-1.261v-0.316c0-1.451-0.672-2.06-1.829-2.06c-1.473,0-2.04,0.778-2.04,1.892
	c0,0.778,0.253,1.388,1.515,1.871l1.828,0.694c1.515,0.568,2.082,1.619,2.082,2.839c0,1.914-1.094,3.322-3.448,3.322
	c-2.292,0-3.427-0.946-3.427-3.47v-0.357h1.262v0.295c0,1.64,0.715,2.481,2.145,2.481c1.346,0,2.207-0.757,2.207-1.998
	c0-0.988-0.399-1.619-1.514-2.06L828.82-613.233z"/>
<path fill="#231F20" d="M835.698-617.796h-1.535v-1.051h1.535v-3.091h1.262v3.091h1.977v1.051h-1.977v8.011
	c0,0.883,0.378,1.177,1.198,1.177c0.252,0,0.505-0.042,0.778-0.125v1.051c-0.147,0.084-0.463,0.126-0.885,0.126
	c-1.703,0-2.354-0.463-2.354-1.955V-617.796z"/>
<path fill="#231F20" d="M843.563-619.101c2.46,0,3.849,1.956,3.849,5.825c0,3.89-1.389,5.845-3.849,5.845s-3.848-1.955-3.848-5.845
	C839.716-617.145,841.104-619.101,843.563-619.101 M843.563-608.481c1.409,0,2.503-1.22,2.503-4.794
	c0-3.554-1.094-4.773-2.503-4.773s-2.502,1.219-2.502,4.773C841.062-609.701,842.154-608.481,843.563-608.481"/>
<path fill="#231F20" d="M849.349-618.848h1.136v1.556h0.041c0.59-1.241,1.599-1.808,2.84-1.808c1.346,0,2.165,0.819,2.334,1.955
	h0.041c0.504-1.241,1.409-1.955,2.838-1.955c1.557,0,2.587,0.883,2.587,2.88v8.537h-1.261v-8.348c0-1.324-0.61-2.018-1.746-2.018
	c-1.262,0-2.271,1.136-2.271,2.86v7.506h-1.261v-8.348c0-1.324-0.61-2.018-1.746-2.018c-1.262,0-2.271,1.136-2.271,2.86v7.506
	h-1.262V-618.848z"/>
<path fill="#231F20" d="M870.568-611.383c-0.189,2.376-1.492,3.953-3.596,3.953c-2.354,0-3.742-1.64-3.742-5.846
	c0-3.868,1.388-5.824,3.848-5.824c2.481,0,3.596,1.703,3.596,5.425v0.463h-6.098v0.525c0,3.217,1.136,4.206,2.376,4.206
	c1.325,0,2.146-0.947,2.354-2.902H870.568z M869.328-614.264c-0.042-2.775-0.82-3.785-2.376-3.785s-2.334,1.01-2.376,3.785H869.328z
	"/>
<path fill="#231F20" d="M872.653-618.848h1.261v1.745h0.043c0.483-1.241,1.514-1.997,2.817-1.997c0.147,0,0.294,0.021,0.44,0.063
	v1.261c-0.209-0.042-0.42-0.063-0.609-0.063c-1.388,0-2.691,1.01-2.691,3.175v6.981h-1.261V-618.848z"/>
<path fill="#231F20" d="M880.267-613.233c-1.577-0.61-2.146-1.535-2.146-2.649c0-2.292,1.432-3.218,3.323-3.218
	c2.104,0,3.07,1.073,3.07,3.112v0.316h-1.262v-0.316c0-1.451-0.673-2.06-1.829-2.06c-1.472,0-2.04,0.778-2.04,1.892
	c0,0.778,0.253,1.388,1.515,1.871l1.829,0.694c1.514,0.568,2.082,1.619,2.082,2.839c0,1.914-1.094,3.322-3.449,3.322
	c-2.291,0-3.427-0.946-3.427-3.47v-0.357h1.262v0.295c0,1.64,0.715,2.481,2.145,2.481c1.346,0,2.208-0.757,2.208-1.998
	c0-0.988-0.4-1.619-1.514-2.06L880.267-613.233z"/>
<polygon fill="#231F20" points="774.828,-599.456 782.271,-599.456 782.271,-598.319 776.174,-598.319 776.174,-592.853 
	781.872,-592.853 781.872,-591.718 776.174,-591.718 776.174,-585.578 782.461,-585.578 782.461,-584.442 774.828,-584.442 "/>
<path fill="#231F20" d="M784.209-595.607h1.135v1.556h0.043c0.631-1.241,1.724-1.808,2.859-1.808c1.703,0,2.858,0.883,2.858,2.985
	v8.432h-1.261v-8.074c0-1.535-0.631-2.292-1.913-2.292c-1.472,0-2.46,1.136-2.46,2.86v7.506h-1.262V-595.607z"/>
<path fill="#231F20" d="M793.631-595.607h1.262v12.468c0,1.914-1.072,2.566-2.418,2.566c-0.252,0-0.483-0.021-0.693-0.064v-1.051
	c0.146,0.021,0.294,0.063,0.483,0.063c0.883,0,1.366-0.378,1.366-1.934V-595.607z M793.631-599.456h1.262v2.145h-1.262V-599.456z"/>
<path fill="#231F20" d="M800.676-595.86c2.461,0,3.849,1.956,3.849,5.825c0,3.89-1.388,5.845-3.849,5.845
	c-2.459,0-3.848-1.955-3.848-5.845C796.828-593.904,798.217-595.86,800.676-595.86 M800.676-585.241c1.41,0,2.503-1.22,2.503-4.794
	c0-3.554-1.093-4.773-2.503-4.773c-1.408,0-2.502,1.219-2.502,4.773C798.174-586.461,799.268-585.241,800.676-585.241"/>
<path fill="#231F20" d="M805.305-595.607h1.346l2.502,9.672h0.043l2.25-9.672h1.346l-3.26,12.069
	c-0.589,2.187-1.262,2.797-2.965,2.797c-0.336,0-0.589-0.021-0.841-0.042v-1.052c0.272,0.021,0.546,0.042,0.819,0.042
	c0.778,0,1.305-0.315,1.662-1.493l0.314-1.051L805.305-595.607z"/>
<polygon fill="#231F20" points="821.289,-599.456 823.413,-588.354 823.478,-588.354 825.705,-599.456 828.838,-599.456 
	825.39,-584.442 821.5,-584.442 818.051,-599.456 "/>
<path fill="#231F20" d="M829.473-599.624h2.902v2.481h-2.902V-599.624z M829.473-595.755h2.902v11.313h-2.902V-595.755z"/>
<path fill="#231F20" d="M834.416-595.755h2.775v1.514h0.041c0.59-1.093,1.409-1.808,2.607-1.808c0.168,0,0.357,0.021,0.526,0.042
	v2.775c-0.294-0.021-0.61-0.042-0.904-0.042c-1.009,0-2.146,0.526-2.146,2.04v6.792h-2.9V-595.755z"/>
<path fill="#231F20" d="M842.051-598.993h2.9v3.238h1.683v1.976h-1.683v6.119c0,0.883,0.189,1.241,1.031,1.241
	c0.23,0,0.463-0.021,0.651-0.042v2.018c-0.63,0.063-1.22,0.126-1.892,0.126c-2.271,0-2.691-0.694-2.691-2.985v-6.477h-1.473v-1.976
	h1.473V-598.993z"/>
<path fill="#231F20" d="M853.448-585.767h-0.042c-0.609,1.114-1.661,1.619-2.881,1.619c-1.809,0-2.881-0.988-2.881-3.217v-8.39
	h2.902v7.801c0,1.136,0.379,1.577,1.24,1.577c0.988,0,1.535-0.61,1.535-1.871v-7.507h2.901v11.313h-2.775V-585.767z"/>
<path fill="#231F20" d="M858.141-592.286v-0.273c0-2.607,1.787-3.49,3.975-3.49c3.447,0,4.1,1.429,4.1,3.469v5.951
	c0,1.051,0.063,1.534,0.357,2.186h-2.775c-0.189-0.357-0.273-0.799-0.357-1.177h-0.043c-0.672,1.177-1.492,1.472-2.88,1.472
	c-2.019,0-2.733-1.724-2.733-3.239c0-2.123,0.861-2.985,2.859-3.532l1.641-0.442c0.861-0.231,1.156-0.567,1.156-1.324
	c0-0.862-0.379-1.388-1.346-1.388c-0.883,0-1.346,0.589-1.346,1.472v0.315H858.141z M863.439-590.099
	c-0.4,0.294-0.883,0.484-1.24,0.568c-1.178,0.252-1.641,0.82-1.641,1.829c0,0.862,0.315,1.577,1.094,1.577
	c0.777,0,1.787-0.504,1.787-1.745V-590.099z"/>
<rect x="868.383" y="-599.456" fill="#231F20" width="2.902" height="15.013"/>
<rect x="873.432" y="-599.456" fill="#231F20" width="2.901" height="15.013"/>
<path fill="#231F20" d="M878.374-582.907c0.253,0.042,0.505,0.063,0.757,0.063c1.072,0,1.472-0.589,1.556-1.598l-3.175-11.313h3.027
	l1.683,7.823h0.042l1.473-7.823h2.9l-2.732,10.556c-1.009,3.911-1.662,4.458-4.354,4.458h-1.177V-582.907z"/>
<polygon fill="#231F20" points="892.297,-586.65 897.828,-596.975 892.676,-596.975 892.676,-599.456 901.317,-599.456 
	901.317,-597.163 895.704,-586.923 901.401,-586.923 901.401,-584.442 892.297,-584.442 "/>
<path fill="#231F20" d="M905.357-589.657v0.904c0,1.325,0.357,2.629,1.43,2.629c0.968,0,1.367-0.736,1.535-2.124h2.607
	c-0.105,2.628-1.366,4.1-4.1,4.1c-4.205,0-4.373-3.238-4.373-6.055c0-3.028,0.588-5.845,4.499-5.845c3.387,0,4.142,2.27,4.142,5.74
	v0.651H905.357z M908.322-591.381c-0.062-1.724-0.272-2.691-1.471-2.691c-1.157,0-1.494,1.198-1.494,2.25v0.441H908.322z"/>
<path fill="#231F20" d="M912.615-595.755h2.774v1.514h0.043c0.589-1.093,1.409-1.808,2.607-1.808c0.169,0,0.357,0.021,0.526,0.042
	v2.775c-0.295-0.021-0.61-0.042-0.904-0.042c-1.01,0-2.145,0.526-2.145,2.04v6.792h-2.902V-595.755z"/>
<path fill="#231F20" d="M923.698-596.048c3.49-0.064,4.458,2.018,4.458,5.95c0,3.869-1.136,5.951-4.458,5.951
	c-3.49,0.063-4.458-2.019-4.458-5.951C919.24-593.967,920.376-596.048,923.698-596.048 M923.698-586.125
	c1.177,0,1.556-1.156,1.556-3.974c0-2.818-0.379-3.974-1.556-3.974c-1.43,0-1.556,1.661-1.556,3.974
	S922.269-586.125,923.698-586.125"/>
<path fill="#231F20" d="M934.994-599.456h4.964c4.204,0,4.961,2.881,4.961,7.296c0,5.32-1.136,7.717-5.151,7.717h-4.773V-599.456z
	 M938.022-586.671h1.346c2.103,0,2.522-1.325,2.522-5.404c0-3.406-0.273-5.151-2.586-5.151h-1.282V-586.671z"/>
<path fill="#231F20" d="M950.916-596.048c3.49-0.064,4.457,2.018,4.457,5.95c0,3.869-1.135,5.951-4.457,5.951
	c-3.49,0.063-4.458-2.019-4.458-5.951C946.458-593.967,947.594-596.048,950.916-596.048 M950.916-586.125
	c1.178,0,1.556-1.156,1.556-3.974c0-2.818-0.378-3.974-1.556-3.974c-1.43,0-1.557,1.661-1.557,3.974
	S949.486-586.125,950.916-586.125"/>
<polygon fill="#231F20" points="956.112,-595.755 959.014,-595.755 960.339,-587.723 960.381,-587.723 961.789,-595.755 
	964.943,-595.755 966.437,-587.723 966.479,-587.723 967.846,-595.755 970.621,-595.755 968.182,-584.442 964.881,-584.442 
	963.388,-592.475 963.346,-592.475 961.938,-584.442 958.572,-584.442 "/>
<path fill="#231F20" d="M971.74-595.755h2.774v1.325h0.043c0.61-1.115,1.661-1.619,2.881-1.619c1.808,0,2.88,0.988,2.88,3.217v8.39
	h-2.9v-7.801c0-1.136-0.379-1.577-1.241-1.577c-0.988,0-1.534,0.609-1.534,1.871v7.507h-2.902V-595.755z"/>
<path fill="#231F20" d="M982.888-598.993h2.901v3.238h1.682v1.976h-1.682v6.119c0,0.883,0.189,1.241,1.03,1.241
	c0.231,0,0.463-0.021,0.651-0.042v2.018c-0.631,0.063-1.219,0.126-1.892,0.126c-2.271,0-2.691-0.694-2.691-2.985v-6.477h-1.472
	v-1.976h1.472V-598.993z"/>
<path fill="#231F20" d="M988.588-599.624h2.901v2.481h-2.901V-599.624z M988.588-595.755h2.901v11.313h-2.901V-595.755z"/>
<path fill="#231F20" d="M993.53-595.755h2.775v1.157h0.042c0.736-1.031,1.641-1.451,2.859-1.451c1.325,0,2.293,0.651,2.607,1.808
	h0.043c0.441-1.199,1.492-1.808,2.859-1.808c1.913,0,2.816,1.198,2.816,3.385v8.222h-2.9v-7.907c0-0.946-0.316-1.471-1.137-1.471
	c-0.924,0-1.514,0.63-1.514,1.934v7.444h-2.901v-7.907c0-0.946-0.315-1.471-1.136-1.471c-0.925,0-1.514,0.63-1.514,1.934v7.444
	h-2.901V-595.755z"/>
<path fill="#231F20" d="M1011.955-589.657v0.904c0,1.325,0.357,2.629,1.43,2.629c0.967,0,1.367-0.736,1.535-2.124h2.607
	c-0.105,2.628-1.367,4.1-4.101,4.1c-4.206,0-4.374-3.238-4.374-6.055c0-3.028,0.589-5.845,4.5-5.845c3.385,0,4.143,2.27,4.143,5.74
	v0.651H1011.955z M1014.92-591.381c-0.063-1.724-0.273-2.691-1.473-2.691c-1.156,0-1.492,1.198-1.492,2.25v0.441H1014.92z"/>
<g>
</g>
<g>
</g>
<g>
	<path fill="#231F20" d="M45.028,12.632c2.67,0,4.168,2.06,4.168,6.729s-1.498,6.729-4.168,6.729c-2.669,0-4.168-2.061-4.168-6.729
		S42.359,12.632,45.028,12.632 M45.028,25.104c1.865,0,2.999-1.532,2.999-5.744s-1.134-5.745-2.999-5.745s-2.997,1.533-2.997,5.745
		S43.163,25.104,45.028,25.104"/>
	<path fill="#231F20" d="M51.175,16.188h1.098v6.82c0,1.568,0.529,2.17,1.682,2.17c1.242,0,2.12-0.985,2.12-2.481v-6.509h1.097
		v9.683h-0.986v-1.35h-0.037c-0.549,1.077-1.499,1.567-2.486,1.567c-1.48,0-2.486-0.766-2.486-2.588V16.188z"/>
	<path fill="#231F20" d="M59.295,16.188h1.096v1.514h0.038c0.42-1.076,1.314-1.732,2.449-1.732c0.128,0,0.257,0.019,0.383,0.055
		v1.093c-0.181-0.036-0.365-0.055-0.529-0.055c-1.207,0-2.341,0.876-2.341,2.754v6.054h-1.096V16.188z"/>
	<path fill="#231F20" d="M76.666,21.458c-0.165,2.972-1.537,4.631-3.876,4.631c-2.669,0-4.168-2.061-4.168-6.728
		c0-4.668,1.499-6.729,4.168-6.729c2.65,0,3.748,1.878,3.748,4.011h-1.171c0-1.769-0.896-3.028-2.577-3.028
		c-1.866,0-2.998,1.533-2.998,5.745s1.132,5.744,2.998,5.744c1.646,0,2.577-1.405,2.705-3.646H76.666z"/>
	<path fill="#231F20" d="M78.26,16.188h1.096v6.82c0,1.568,0.53,2.17,1.683,2.17c1.243,0,2.12-0.985,2.12-2.481v-6.509h1.097v9.683
		h-0.986v-1.35h-0.037c-0.548,1.077-1.498,1.567-2.486,1.567c-1.48,0-2.485-0.766-2.485-2.588V16.188z"/>
	<path fill="#231F20" d="M87.914,21.056c-1.37-0.528-1.865-1.331-1.865-2.297c0-1.987,1.244-2.791,2.889-2.791
		c1.828,0,2.67,0.931,2.67,2.699v0.274h-1.097v-0.274c0-1.258-0.585-1.786-1.592-1.786c-1.279,0-1.771,0.674-1.771,1.641
		c0,0.674,0.219,1.204,1.316,1.623l1.59,0.602c1.316,0.493,1.811,1.404,1.811,2.462c0,1.66-0.952,2.88-3,2.88
		c-1.992,0-2.979-0.82-2.979-3.009v-0.31h1.098v0.255c0,1.422,0.622,2.152,1.864,2.152c1.17,0,1.919-0.657,1.919-1.733
		c0-0.856-0.347-1.404-1.315-1.786L87.914,21.056z"/>
	<path fill="#231F20" d="M93.895,17.1H92.56v-0.912h1.335v-2.68h1.099v2.68h1.718V17.1h-1.718v6.947
		c0,0.766,0.328,1.021,1.041,1.021c0.219,0,0.438-0.037,0.677-0.109v0.912c-0.128,0.073-0.403,0.109-0.768,0.109
		c-1.481,0-2.049-0.401-2.049-1.694V17.1z"/>
	<path fill="#231F20" d="M100.733,15.969c2.139,0,3.347,1.696,3.347,5.052c0,3.373-1.208,5.068-3.347,5.068
		s-3.346-1.695-3.346-5.068C97.388,17.665,98.595,15.969,100.733,15.969 M100.733,25.178c1.226,0,2.176-1.058,2.176-4.157
		c0-3.083-0.95-4.139-2.176-4.139c-1.225,0-2.176,1.057-2.176,4.139C98.558,24.12,99.509,25.178,100.733,25.178"/>
	<path fill="#231F20" d="M105.764,16.188h0.987v1.35h0.037c0.512-1.076,1.39-1.568,2.468-1.568c1.17,0,1.883,0.71,2.029,1.695h0.037
		c0.438-1.076,1.225-1.695,2.467-1.695c1.355,0,2.249,0.766,2.249,2.498v7.404h-1.097v-7.24c0-1.148-0.53-1.75-1.517-1.75
		c-1.098,0-1.975,0.985-1.975,2.48v6.509h-1.098v-7.24c0-1.148-0.529-1.75-1.518-1.75c-1.096,0-1.974,0.985-1.974,2.48v6.509h-1.098
		V16.188z"/>
	<path fill="#231F20" d="M124.215,22.661c-0.165,2.061-1.298,3.428-3.127,3.428c-2.047,0-3.255-1.422-3.255-5.069
		c0-3.354,1.208-5.051,3.347-5.051c2.157,0,3.127,1.477,3.127,4.705v0.401h-5.302v0.456c0,2.789,0.986,3.647,2.065,3.647
		c1.152,0,1.865-0.821,2.047-2.517H124.215z M123.136,20.163c-0.036-2.407-0.713-3.283-2.065-3.283
		c-1.354,0-2.029,0.876-2.065,3.283H123.136z"/>
	<path fill="#231F20" d="M126.027,16.188h1.097v1.514h0.037c0.42-1.076,1.315-1.732,2.449-1.732c0.127,0,0.257,0.019,0.383,0.055
		v1.093c-0.181-0.036-0.365-0.055-0.529-0.055c-1.207,0-2.34,0.876-2.34,2.754v6.054h-1.097V16.188z"/>
	<path fill="#231F20" d="M132.647,21.056c-1.372-0.528-1.864-1.331-1.864-2.297c0-1.987,1.242-2.791,2.889-2.791
		c1.827,0,2.669,0.931,2.669,2.699v0.274h-1.098v-0.274c0-1.258-0.585-1.786-1.591-1.786c-1.278,0-1.773,0.674-1.773,1.641
		c0,0.674,0.22,1.204,1.316,1.623l1.591,0.602c1.316,0.493,1.811,1.404,1.811,2.462c0,1.66-0.951,2.88-2.999,2.88
		c-1.993,0-2.979-0.82-2.979-3.009v-0.31h1.098v0.255c0,1.422,0.621,2.152,1.863,2.152c1.17,0,1.92-0.657,1.92-1.733
		c0-0.856-0.349-1.404-1.316-1.786L132.647,21.056z"/>
</g>
<g>
	<polygon fill="#6D6E70" points="176.396,150.74 177.865,150.74 180.142,159.134 180.167,159.134 182.445,150.74 183.835,150.74 
		183.835,160.193 182.987,160.193 182.987,151.535 182.962,151.535 180.513,160.193 179.718,160.193 177.269,151.535 
		177.242,151.535 177.242,160.193 176.396,160.193 	"/>
	<path fill="#6D6E70" d="M189.751,157.862c-0.119,1.498-0.94,2.49-2.263,2.49c-1.483,0-2.356-1.032-2.356-3.681
		c0-2.435,0.873-3.667,2.421-3.667c1.563,0,2.265,1.072,2.265,3.416v0.291h-3.839v0.33c0,2.027,0.714,2.649,1.496,2.649
		c0.834,0,1.35-0.597,1.482-1.829H189.751z M188.971,156.05c-0.027-1.748-0.517-2.384-1.496-2.384c-0.98,0-1.47,0.636-1.496,2.384
		H188.971z"/>
	<path fill="#6D6E70" d="M190.914,155.256c0-1.443,0.688-2.251,2.171-2.251c1.457,0,1.986,0.754,1.986,1.867v4.157
		c0,0.396,0.133,0.581,0.41,0.581h0.226v0.583c-0.145,0.055-0.265,0.08-0.37,0.08c-0.622,0-1.02-0.147-1.02-0.873v-0.24h-0.027
		c-0.317,0.928-1.032,1.192-1.813,1.192c-1.231,0-1.787-0.769-1.787-1.985c0-0.929,0.424-1.669,1.416-1.946l1.496-0.425
		c0.556-0.158,0.676-0.291,0.676-1.111c0-0.9-0.504-1.219-1.218-1.219c-0.94,0-1.352,0.571-1.352,1.59H190.914z M194.277,156.223
		h-0.027c-0.078,0.237-0.528,0.383-0.848,0.463l-0.661,0.172c-0.794,0.211-1.204,0.622-1.204,1.456c0,0.822,0.423,1.378,1.111,1.378
		c0.967,0,1.629-0.729,1.629-1.987V156.223z"/>
	<path fill="#6D6E70" d="M197.811,156.698c-0.994-0.383-1.351-0.966-1.351-1.668c0-1.442,0.899-2.025,2.093-2.025
		c1.322,0,1.932,0.674,1.932,1.958v0.2h-0.795v-0.2c0-0.912-0.424-1.296-1.151-1.296c-0.926,0-1.283,0.489-1.283,1.192
		c0,0.488,0.158,0.873,0.952,1.177l1.151,0.438c0.954,0.355,1.313,1.021,1.313,1.787c0,1.204-0.689,2.092-2.172,2.092
		c-1.443,0-2.158-0.596-2.158-2.184v-0.226h0.794v0.186c0,1.031,0.45,1.563,1.351,1.563c0.848,0,1.39-0.477,1.39-1.257
		c0-0.624-0.251-1.021-0.952-1.3L197.811,156.698z"/>
	<path fill="#6D6E70" d="M201.847,153.164h0.795v4.951c0,1.138,0.383,1.576,1.217,1.576c0.901,0,1.537-0.717,1.537-1.802v-4.726
		h0.794v7.029h-0.715v-0.979h-0.026c-0.397,0.78-1.086,1.138-1.801,1.138c-1.072,0-1.801-0.557-1.801-1.88V153.164z"/>
	<path fill="#6D6E70" d="M207.724,153.164h0.795v1.098h0.026c0.305-0.781,0.952-1.257,1.775-1.257c0.092,0,0.184,0.013,0.276,0.04
		v0.793c-0.132-0.025-0.264-0.039-0.384-0.039c-0.873,0-1.694,0.637-1.694,1.998v4.396h-0.795V153.164z"/>
	<path fill="#6D6E70" d="M215.733,157.862c-0.12,1.498-0.94,2.49-2.265,2.49c-1.483,0-2.357-1.032-2.357-3.681
		c0-2.435,0.874-3.667,2.423-3.667c1.563,0,2.265,1.072,2.265,3.416v0.291h-3.84v0.33c0,2.027,0.716,2.649,1.497,2.649
		c0.833,0,1.35-0.597,1.483-1.829H215.733z M214.951,156.05c-0.026-1.748-0.516-2.384-1.495-2.384c-0.98,0-1.471,0.636-1.497,2.384
		H214.951z"/>
	<path fill="#6D6E70" d="M220.749,159.029h-0.026c-0.211,0.808-0.887,1.323-1.721,1.323c-1.549,0-2.251-1.243-2.251-3.681
		c0-2.423,0.702-3.667,2.251-3.667c0.873,0,1.47,0.477,1.642,1.218h0.026v-3.482h0.794v9.455h-0.715V159.029z M219.134,159.691
		c0.809,0,1.536-0.412,1.536-3.02c0-2.595-0.728-3.005-1.536-3.005c-0.794,0-1.535,0.41-1.535,3.005
		C217.599,159.279,218.34,159.691,219.134,159.691"/>
	<path fill="#6D6E70" d="M227.618,150.74h1.06l2.793,9.453h-0.9l-0.768-2.755h-3.31l-0.769,2.755h-0.899L227.618,150.74z
		 M229.617,156.725l-1.456-5.322h-0.027l-1.456,5.322H229.617z"/>
	<path fill="#6D6E70" d="M236.446,157.862c-0.118,1.498-0.939,2.49-2.236,2.49c-1.483,0-2.356-1.032-2.356-3.681
		c0-2.436,0.873-3.667,2.422-3.667c1.324,0,2.092,0.807,2.171,2.25h-0.794c-0.092-1.099-0.53-1.588-1.377-1.588
		c-0.859,0-1.575,0.53-1.575,3.02c0,2.646,0.755,3.005,1.496,3.005c0.808,0,1.324-0.597,1.456-1.829H236.446z"/>
	<path fill="#6D6E70" d="M237.61,153.164h0.794v1.098h0.027c0.304-0.781,0.952-1.257,1.774-1.257c0.093,0,0.185,0.013,0.277,0.04
		v0.793c-0.133-0.025-0.265-0.039-0.384-0.039c-0.873,0-1.695,0.637-1.695,1.998v4.396h-0.794V153.164z"/>
	<path fill="#6D6E70" d="M243.343,153.005c1.549,0,2.423,1.231,2.423,3.667c0,2.45-0.874,3.681-2.423,3.681
		c-1.55,0-2.423-1.23-2.423-3.681C240.92,154.236,241.793,153.005,243.343,153.005 M243.343,159.691c0.887,0,1.575-0.768,1.575-3.02
		c0-2.236-0.688-3.005-1.575-3.005c-0.888,0-1.575,0.769-1.575,3.005C241.768,158.924,242.455,159.691,243.343,159.691"/>
	<path fill="#6D6E70" d="M248.041,156.698c-0.994-0.383-1.351-0.966-1.351-1.668c0-1.442,0.901-2.025,2.092-2.025
		c1.323,0,1.933,0.674,1.933,1.958v0.2h-0.794v-0.2c0-0.912-0.424-1.296-1.153-1.296c-0.926,0-1.283,0.489-1.283,1.192
		c0,0.488,0.159,0.873,0.953,1.177l1.152,0.438c0.953,0.355,1.31,1.021,1.31,1.787c0,1.204-0.688,2.092-2.171,2.092
		c-1.442,0-2.157-0.596-2.157-2.184v-0.226h0.794v0.186c0,1.031,0.451,1.563,1.35,1.563c0.848,0,1.391-0.477,1.391-1.257
		c0-0.624-0.251-1.021-0.953-1.3L248.041,156.698z"/>
	<path fill="#6D6E70" d="M253.189,156.698c-0.993-0.383-1.351-0.966-1.351-1.668c0-1.442,0.901-2.025,2.092-2.025
		c1.324,0,1.933,0.674,1.933,1.958v0.2h-0.794v-0.2c0-0.912-0.423-1.296-1.151-1.296c-0.928,0-1.285,0.489-1.285,1.192
		c0,0.488,0.16,0.873,0.954,1.177l1.151,0.438c0.953,0.355,1.311,1.021,1.311,1.787c0,1.204-0.688,2.092-2.172,2.092
		c-1.442,0-2.156-0.596-2.156-2.184v-0.226h0.794v0.186c0,1.031,0.45,1.563,1.351,1.563c0.847,0,1.39-0.477,1.39-1.257
		c0-0.624-0.251-1.021-0.954-1.3L253.189,156.698z"/>
	<polygon fill="#6D6E70" points="260.376,150.74 265.063,150.74 265.063,151.455 261.224,151.455 261.224,154.899 264.813,154.899 
		264.813,155.612 261.224,155.612 261.224,159.479 265.183,159.479 265.183,160.193 260.376,160.193 	"/>
	<path fill="#6D6E70" d="M266.278,153.164h0.716v0.979h0.025c0.398-0.781,1.086-1.139,1.802-1.139c1.071,0,1.801,0.556,1.801,1.88
		v5.309h-0.794v-5.085c0-0.965-0.398-1.441-1.206-1.441c-0.926,0-1.549,0.715-1.549,1.801v4.726h-0.795V153.164z"/>
	<path fill="#6D6E70" d="M272.447,153.825h-0.967v-0.661h0.967v-1.947h0.795v1.947h1.243v0.661h-1.243v5.044
		c0,0.557,0.238,0.742,0.755,0.742c0.159,0,0.317-0.027,0.488-0.08v0.662c-0.093,0.055-0.29,0.08-0.556,0.08
		c-1.071,0-1.482-0.291-1.482-1.232V153.825z"/>
	<path fill="#6D6E70" d="M275.399,150.74h0.795v1.35h-0.795V150.74z M275.399,153.164h0.795v7.029h-0.795V153.164z"/>
	<path fill="#6D6E70" d="M277.781,153.164h0.794v1.098h0.027c0.304-0.781,0.952-1.257,1.774-1.257c0.093,0,0.185,0.013,0.277,0.04
		v0.793c-0.133-0.025-0.265-0.039-0.384-0.039c-0.874,0-1.695,0.637-1.695,1.998v4.396h-0.794V153.164z"/>
	<path fill="#6D6E70" d="M285.789,157.862c-0.118,1.498-0.94,2.49-2.263,2.49c-1.483,0-2.356-1.032-2.356-3.681
		c0-2.435,0.873-3.667,2.422-3.667c1.563,0,2.265,1.072,2.265,3.416v0.291h-3.84v0.33c0,2.027,0.714,2.649,1.496,2.649
		c0.834,0,1.35-0.597,1.482-1.829H285.789z M285.009,156.05c-0.026-1.748-0.517-2.384-1.496-2.384c-0.98,0-1.47,0.636-1.496,2.384
		H285.009z"/>
	<polygon fill="#6D6E70" points="176.314,166.624 177.455,166.624 181.068,174.858 181.095,174.858 181.095,166.624 
		181.942,166.624 181.942,176.078 180.804,176.078 177.189,167.843 177.162,167.843 177.162,176.078 176.314,176.078 	"/>
	<path fill="#6D6E70" d="M183.503,166.626h0.794v1.35h-0.794V166.626z M183.503,169.047h0.794v7.031h-0.794V169.047z"/>
	<path fill="#6D6E70" d="M185.938,169.047h0.715v0.979h0.027c0.37-0.78,1.006-1.14,1.788-1.14c0.847,0,1.361,0.517,1.469,1.232
		h0.026c0.317-0.781,0.886-1.232,1.788-1.232c0.979,0,1.628,0.558,1.628,1.814v5.377h-0.795v-5.258c0-0.834-0.384-1.269-1.1-1.269
		c-0.793,0-1.429,0.713-1.429,1.799v4.728h-0.794v-5.258c0-0.834-0.384-1.269-1.101-1.269c-0.794,0-1.43,0.713-1.43,1.799v4.728
		h-0.794V169.047z"/>
	<path fill="#6D6E70" d="M194.885,166.626h0.795v3.48h0.025c0.172-0.741,0.769-1.22,1.643-1.22c1.548,0,2.25,1.247,2.25,3.668
		c0,2.438-0.702,3.682-2.25,3.682c-0.834,0-1.51-0.517-1.721-1.322h-0.028v1.164h-0.714V166.626z M197.215,175.573
		c0.794,0,1.535-0.409,1.535-3.019c0-2.594-0.741-3.003-1.535-3.003c-0.808,0-1.535,0.409-1.535,3.003
		C195.68,175.164,196.407,175.573,197.215,175.573"/>
	<rect x="200.895" y="166.626" fill="#6D6E70" width="0.795" height="9.452"/>
	<path fill="#6D6E70" d="M207.606,173.747c-0.12,1.495-0.94,2.489-2.265,2.489c-1.483,0-2.357-1.032-2.357-3.682
		c0-2.436,0.874-3.665,2.423-3.665c1.563,0,2.265,1.071,2.265,3.415v0.291h-3.84v0.331c0,2.024,0.716,2.647,1.497,2.647
		c0.833,0,1.35-0.596,1.483-1.827H207.606z M206.824,171.934c-0.026-1.747-0.517-2.385-1.495-2.385c-0.98,0-1.471,0.638-1.497,2.385
		H206.824z"/>
	<rect x="212.118" y="166.626" fill="#6D6E70" width="0.847" height="9.452"/>
	<path fill="#6D6E70" d="M214.526,169.047h0.715v0.979h0.026c0.398-0.78,1.085-1.14,1.801-1.14c1.072,0,1.801,0.558,1.801,1.881
		v5.311h-0.794v-5.085c0-0.967-0.397-1.441-1.206-1.441c-0.926,0-1.548,0.713-1.548,1.799v4.728h-0.795V169.047z"/>
	<path fill="#6D6E70" d="M221.516,172.581c-0.993-0.383-1.351-0.967-1.351-1.666c0-1.444,0.901-2.028,2.092-2.028
		c1.324,0,1.933,0.676,1.933,1.962v0.196h-0.794v-0.196c0-0.915-0.423-1.297-1.151-1.297c-0.928,0-1.285,0.487-1.285,1.189
		c0,0.49,0.16,0.873,0.954,1.18l1.151,0.437c0.953,0.356,1.311,1.019,1.311,1.787c0,1.204-0.688,2.092-2.172,2.092
		c-1.442,0-2.157-0.597-2.157-2.185v-0.224h0.794v0.183c0,1.034,0.451,1.563,1.352,1.563c0.847,0,1.39-0.474,1.39-1.257
		c0-0.622-0.251-1.019-0.954-1.297L221.516,172.581z"/>
	<path fill="#6D6E70" d="M225.844,169.708h-0.967v-0.661h0.967V167.1h0.795v1.947h1.242v0.661h-1.242v5.045
		c0,0.556,0.238,0.741,0.754,0.741c0.159,0,0.318-0.025,0.488-0.078v0.662c-0.092,0.052-0.29,0.078-0.555,0.078
		c-1.072,0-1.482-0.291-1.482-1.23V169.708z"/>
	<path fill="#6D6E70" d="M228.597,171.139c0-1.443,0.688-2.249,2.171-2.249c1.456,0,1.986,0.752,1.986,1.866v4.155
		c0,0.397,0.132,0.583,0.41,0.583h0.225v0.584c-0.146,0.052-0.264,0.078-0.37,0.078c-0.622,0-1.02-0.146-1.02-0.874v-0.237h-0.026
		c-0.317,0.926-1.033,1.19-1.813,1.19c-1.231,0-1.787-0.767-1.787-1.986c0-0.926,0.423-1.668,1.416-1.944l1.496-0.424
		c0.556-0.159,0.676-0.292,0.676-1.113c0-0.899-0.504-1.219-1.22-1.219c-0.938,0-1.35,0.57-1.35,1.59H228.597z M231.96,172.105
		h-0.027c-0.079,0.237-0.53,0.383-0.848,0.463l-0.662,0.173c-0.794,0.211-1.204,0.621-1.204,1.456c0,0.821,0.424,1.377,1.111,1.377
		c0.968,0,1.63-0.728,1.63-1.985V172.105z"/>
	<rect x="234.434" y="166.626" fill="#6D6E70" width="0.795" height="9.452"/>
	<rect x="236.869" y="166.626" fill="#6D6E70" width="0.794" height="9.452"/>
	<path fill="#6D6E70" d="M243.58,173.747c-0.118,1.495-0.94,2.489-2.264,2.489c-1.482,0-2.356-1.032-2.356-3.682
		c0-2.436,0.874-3.665,2.423-3.665c1.563,0,2.265,1.071,2.265,3.415v0.291h-3.841v0.331c0,2.024,0.715,2.647,1.496,2.647
		c0.835,0,1.351-0.596,1.483-1.827H243.58z M242.8,171.934c-0.027-1.747-0.517-2.385-1.497-2.385s-1.469,0.638-1.496,2.385H242.8z"
		/>
	<path fill="#6D6E70" d="M248.596,174.914h-0.025c-0.213,0.806-0.887,1.322-1.722,1.322c-1.55,0-2.251-1.244-2.251-3.682
		c0-2.421,0.701-3.668,2.251-3.668c0.874,0,1.47,0.479,1.641,1.22h0.028v-3.48h0.794v9.452h-0.716V174.914z M246.98,175.573
		c0.808,0,1.537-0.409,1.537-3.019c0-2.594-0.729-3.003-1.537-3.003c-0.794,0-1.536,0.409-1.536,3.003
		C245.444,175.164,246.187,175.573,246.98,175.573"/>
	<path fill="#6D6E70" d="M253.917,166.624h2.607c1.827,0,2.542,0.966,2.542,2.37c0,0.928-0.503,1.814-1.456,2.051v0.027
		c1.165,0.226,1.762,1.126,1.762,2.356c0,1.656-1.074,2.649-2.861,2.649h-2.594V166.624z M254.763,170.781h1.338
		c1.456,0,2.119-0.623,2.119-1.721c0-1.258-0.649-1.723-1.974-1.723h-1.483V170.781z M254.763,175.361h1.576
		c1.47,0,2.186-0.661,2.186-1.933c0-1.271-0.716-1.932-2.186-1.932h-1.576V175.361z"/>
	<path fill="#6D6E70" d="M260.415,171.139c0-1.443,0.688-2.249,2.171-2.249c1.456,0,1.986,0.752,1.986,1.866v4.155
		c0,0.397,0.132,0.583,0.41,0.583h0.225v0.584c-0.146,0.052-0.264,0.078-0.37,0.078c-0.622,0-1.02-0.146-1.02-0.874v-0.237h-0.026
		c-0.317,0.926-1.033,1.19-1.813,1.19c-1.231,0-1.787-0.767-1.787-1.986c0-0.926,0.423-1.668,1.416-1.944l1.496-0.424
		c0.557-0.159,0.675-0.292,0.675-1.113c0-0.899-0.503-1.219-1.218-1.219c-0.94,0-1.351,0.57-1.351,1.59H260.415z M263.777,172.105
		h-0.026c-0.079,0.237-0.53,0.383-0.848,0.463l-0.662,0.173c-0.794,0.211-1.204,0.621-1.204,1.456c0,0.821,0.424,1.377,1.111,1.377
		c0.968,0,1.629-0.728,1.629-1.985V172.105z"/>
	<path fill="#6D6E70" d="M267.312,172.581c-0.993-0.383-1.351-0.967-1.351-1.666c0-1.444,0.9-2.028,2.092-2.028
		c1.324,0,1.933,0.676,1.933,1.962v0.196h-0.794v-0.196c0-0.915-0.424-1.297-1.151-1.297c-0.928,0-1.284,0.487-1.284,1.189
		c0,0.49,0.159,0.873,0.953,1.18l1.151,0.437c0.953,0.356,1.311,1.019,1.311,1.787c0,1.204-0.688,2.092-2.172,2.092
		c-1.442,0-2.157-0.597-2.157-2.185v-0.224h0.795v0.183c0,1.034,0.45,1.563,1.351,1.563c0.847,0,1.39-0.474,1.39-1.257
		c0-0.622-0.253-1.019-0.954-1.297L267.312,172.581z"/>
	<path fill="#6D6E70" d="M275.677,173.747c-0.118,1.495-0.94,2.489-2.264,2.489c-1.482,0-2.357-1.032-2.357-3.682
		c0-2.436,0.875-3.665,2.423-3.665c1.563,0,2.264,1.071,2.264,3.415v0.291h-3.839v0.331c0,2.024,0.715,2.647,1.496,2.647
		c0.834,0,1.351-0.596,1.483-1.827H275.677z M274.896,171.934c-0.027-1.747-0.517-2.385-1.497-2.385s-1.469,0.638-1.496,2.385
		H274.896z"/>
	<path fill="#6D6E70" d="M178.619,182.508c-1.033,1.8-1.536,3.865-1.536,5.944s0.503,4.144,1.536,5.944h-0.57
		c-1.297-2.118-1.76-4.104-1.76-5.944s0.463-3.826,1.76-5.944H178.619z"/>
	<path fill="#6D6E70" d="M178.764,189.193h0.848v0.225c0,1.285,0.33,1.987,1.257,1.987c0.928,0,1.444-0.398,1.444-1.906v-6.991
		h0.848v7.084c0,1.628-0.756,2.527-2.251,2.527c-1.351,0-2.146-0.701-2.146-2.542V189.193z"/>
	<path fill="#6D6E70" d="M184.667,184.931h0.795v4.951c0,1.138,0.382,1.576,1.218,1.576c0.901,0,1.536-0.717,1.536-1.802v-4.726
		h0.794v7.029h-0.716v-0.979h-0.025c-0.397,0.78-1.086,1.138-1.801,1.138c-1.073,0-1.801-0.558-1.801-1.88V184.931z"/>
	<rect x="190.597" y="182.508" fill="#6D6E70" width="0.794" height="9.452"/>
	<path fill="#6D6E70" d="M192.357,184.931h0.848l1.575,6.089h0.024l1.417-6.089h0.848l-2.051,7.6
		c-0.37,1.377-0.794,1.761-1.867,1.761c-0.212,0-0.37-0.013-0.53-0.025v-0.664c0.173,0.013,0.346,0.028,0.517,0.028
		c0.491,0,0.821-0.199,1.047-0.939l0.197-0.664L192.357,184.931z"/>
	<path fill="#6D6E70" d="M200.96,185.526c0.026-1.813,0.887-2.94,2.648-2.94c1.271,0,2.422,0.755,2.422,2.542
		c0,1.139-0.344,1.894-1.549,2.888l-1.019,0.833c-0.98,0.808-1.497,1.416-1.643,2.396h4.29v0.716h-5.189
		c0-1.549,0.701-2.555,1.958-3.614l1.008-0.848c0.938-0.795,1.297-1.431,1.297-2.33c0-1.245-0.688-1.921-1.656-1.921
		c-1.071,0-1.667,0.715-1.72,2.278H200.96z"/>
	<path fill="#6D6E70" d="M209.868,182.586c2.132,0,2.635,2,2.635,4.766c0,2.769-0.503,4.768-2.635,4.768
		c-2.131,0-2.635-1.999-2.635-4.768C207.233,184.586,207.737,182.586,209.868,182.586 M209.868,191.458
		c1.284,0,1.787-1.101,1.787-4.106c0-3.004-0.503-4.104-1.787-4.104c-1.283,0-1.787,1.1-1.787,4.104
		C208.081,190.357,208.585,191.458,209.868,191.458"/>
	<path fill="#6D6E70" d="M216.09,184.784h-2.146v-0.582c1.576-0.014,2.278-0.635,2.331-1.616h0.609v9.374h-0.794V184.784z"/>
	<path fill="#6D6E70" d="M220.02,185.526c0.026-1.813,0.887-2.94,2.648-2.94c1.271,0,2.423,0.755,2.423,2.542
		c0,1.139-0.346,1.894-1.55,2.888l-1.019,0.833c-0.979,0.808-1.496,1.416-1.642,2.396h4.288v0.716h-5.188
		c0-1.549,0.701-2.555,1.959-3.614l1.007-0.848c0.938-0.795,1.297-1.431,1.297-2.33c0-1.245-0.688-1.921-1.655-1.921
		c-1.072,0-1.668,0.715-1.721,2.278H220.02z"/>
	<rect x="228.372" y="187.843" fill="#6D6E70" width="2.873" height="0.716"/>
	<path fill="#6D6E70" d="M234.114,189.193h0.848v0.225c0,1.285,0.333,1.987,1.259,1.987c0.927,0,1.442-0.398,1.442-1.906v-6.991
		h0.848v7.084c0,1.628-0.755,2.527-2.25,2.527c-1.351,0-2.146-0.701-2.146-2.542V189.193z"/>
	<path fill="#6D6E70" d="M240.02,184.931h0.795v4.951c0,1.138,0.383,1.576,1.217,1.576c0.901,0,1.536-0.717,1.536-1.802v-4.726
		h0.794v7.029h-0.714v-0.979h-0.027c-0.396,0.78-1.086,1.138-1.8,1.138c-1.074,0-1.801-0.558-1.801-1.88V184.931z"/>
	<path fill="#6D6E70" d="M245.895,184.931h0.716v0.979h0.026c0.398-0.781,1.086-1.138,1.8-1.138c1.073,0,1.802,0.555,1.802,1.88
		v5.309h-0.794v-5.084c0-0.967-0.398-1.442-1.205-1.442c-0.927,0-1.549,0.714-1.549,1.8v4.727h-0.796V184.931z"/>
	<path fill="#6D6E70" d="M256.101,189.63c-0.118,1.497-0.939,2.489-2.264,2.489c-1.482,0-2.356-1.032-2.356-3.68
		c0-2.436,0.874-3.668,2.423-3.668c1.563,0,2.265,1.071,2.265,3.415v0.291h-3.84v0.331c0,2.027,0.715,2.649,1.497,2.649
		c0.833,0,1.349-0.596,1.481-1.828H256.101z M255.32,187.815c-0.026-1.747-0.517-2.382-1.495-2.382
		c-0.981,0-1.471,0.635-1.497,2.382H255.32z"/>
	<path fill="#6D6E70" d="M260.442,185.526c0.026-1.813,0.887-2.94,2.647-2.94c1.271,0,2.424,0.755,2.424,2.542
		c0,1.139-0.346,1.894-1.55,2.888l-1.02,0.833c-0.98,0.808-1.497,1.416-1.642,2.396h4.289v0.716h-5.189
		c0-1.549,0.701-2.555,1.96-3.614l1.006-0.848c0.938-0.795,1.298-1.431,1.298-2.33c0-1.245-0.689-1.921-1.655-1.921
		c-1.072,0-1.669,0.715-1.721,2.278H260.442z"/>
	<path fill="#6D6E70" d="M269.35,182.586c2.131,0,2.635,2,2.635,4.766c0,2.769-0.504,4.768-2.635,4.768
		c-2.132,0-2.635-1.999-2.635-4.768C266.715,184.586,267.218,182.586,269.35,182.586 M269.35,191.458
		c1.284,0,1.788-1.101,1.788-4.106c0-3.004-0.504-4.104-1.788-4.104s-1.787,1.1-1.787,4.104
		C267.563,190.357,268.065,191.458,269.35,191.458"/>
	<path fill="#6D6E70" d="M275.57,184.784h-2.144v-0.582c1.574-0.014,2.275-0.635,2.329-1.616h0.608v9.374h-0.794V184.784z"/>
	<path fill="#6D6E70" d="M282.917,189.551h-3.614v-0.792l3.614-6.173h0.795v6.251h1.098v0.714h-1.098v2.409h-0.795V189.551z
		 M282.917,188.837v-4.898h-0.026l-2.873,4.898H282.917z"/>
	<path fill="#6D6E70" d="M285.126,194.396c1.032-1.801,1.536-3.865,1.536-5.944s-0.504-4.145-1.536-5.944h0.569
		c1.298,2.118,1.761,4.104,1.761,5.944c0,1.84-0.463,3.826-1.761,5.944H285.126z"/>
</g>
<path fill="#1B75BB" d="M162.354,134.665c0,33.363-27.048,60.409-60.412,60.409c-33.362,0-60.409-27.046-60.409-60.409
	s27.047-60.41,60.409-60.41C135.306,74.255,162.354,101.302,162.354,134.665 M101.942,92.494c-23.289,0-42.171,18.88-42.171,42.171
	s18.882,42.172,42.171,42.172c23.29,0,42.172-18.881,42.172-42.172S125.232,92.494,101.942,92.494"/>
<path fill="none" stroke="#FFFFFF" stroke-width="2.39" d="M162.354,134.665c0,33.363-27.048,60.409-60.412,60.409
	c-33.362,0-60.409-27.046-60.409-60.409s27.047-60.41,60.409-60.41C135.306,74.255,162.354,101.302,162.354,134.665z
	 M101.942,92.494c-23.289,0-42.171,18.88-42.171,42.171s18.882,42.172,42.171,42.172c23.29,0,42.172-18.881,42.172-42.172
	S125.232,92.494,101.942,92.494z"/>
<path fill="#1B75BB" d="M101.942,190.865c-30.987,0-56.198-25.211-56.198-56.2c0-30.988,25.21-56.199,56.198-56.199
	c30.989,0,56.199,25.211,56.199,56.199C158.141,165.654,132.931,190.865,101.942,190.865 M101.942,90
	c-24.628,0-44.663,20.039-44.663,44.666c0,24.628,20.035,44.664,44.663,44.664c24.629,0,44.666-20.036,44.666-44.664
	C146.607,110.038,126.571,90,101.942,90"/>
<circle fill="none" stroke="#FFFFFF" stroke-width="1.594" cx="101.942" cy="134.665" r="50.432"/>
<line fill="none" stroke="#FFFFFF" stroke-width="2.39" x1="101.942" y1="68.34" x2="101.942" y2="96.156"/>
<path fill="#737477" d="M83.873,124.652c0,1.062,0.34,1.702,1.302,1.702c1.523,0,1.762-1.522,1.762-3.606v-0.681h-0.039
	c-0.481,0.721-1.423,1.202-2.664,1.202c-2.525,0-3.468-1.884-3.468-4.428c0-3.246,1.424-5.069,4.589-5.069
	c3.966,0,4.468,3.166,4.468,6.633c0,4.027-0.082,7.833-4.77,7.833c-2.043,0-3.906-0.861-3.946-3.586H83.873z M85.215,121.146
	c1.142,0,1.583-0.763,1.583-2.684c-0.021-1.625-0.241-2.807-1.583-2.807c-1.402,0-1.563,1.203-1.563,2.807
	C83.653,120.384,84.093,121.146,85.215,121.146"/>
<path fill="#737477" d="M93.487,124.652c0,1.062,0.34,1.702,1.302,1.702c1.522,0,1.763-1.522,1.763-3.606v-0.681h-0.04
	c-0.48,0.721-1.423,1.202-2.664,1.202c-2.525,0-3.467-1.884-3.467-4.428c0-3.246,1.423-5.069,4.589-5.069
	c3.966,0,4.468,3.166,4.468,6.633c0,4.027-0.081,7.833-4.769,7.833c-2.044,0-3.907-0.861-3.947-3.586H93.487z M94.829,121.146
	c1.142,0,1.583-0.763,1.583-2.684c-0.021-1.625-0.241-2.807-1.583-2.807c-1.402,0-1.562,1.203-1.562,2.807
	C93.267,120.384,93.708,121.146,94.829,121.146"/>
<rect x="100.797" y="124.832" fill="#737477" width="2.645" height="3.125"/>
<path fill="#737477" d="M107.909,124.652c0,1.062,0.34,1.702,1.302,1.702c1.523,0,1.762-1.522,1.762-3.606v-0.681h-0.039
	c-0.481,0.721-1.423,1.202-2.665,1.202c-2.524,0-3.467-1.884-3.467-4.428c0-3.246,1.423-5.069,4.588-5.069
	c3.966,0,4.468,3.166,4.468,6.633c0,4.027-0.081,7.833-4.769,7.833c-2.043,0-3.907-0.861-3.947-3.586H107.909z M109.25,121.146
	c1.142,0,1.584-0.763,1.584-2.684c-0.022-1.625-0.242-2.807-1.584-2.807c-1.402,0-1.563,1.203-1.563,2.807
	C107.688,120.384,108.129,121.146,109.25,121.146"/>
<path fill="#737477" d="M117.523,124.652c0,1.062,0.34,1.702,1.302,1.702c1.523,0,1.762-1.522,1.762-3.606v-0.681h-0.039
	c-0.48,0.721-1.422,1.202-2.665,1.202c-2.524,0-3.466-1.884-3.466-4.428c0-3.246,1.423-5.069,4.588-5.069
	c3.967,0,4.468,3.166,4.468,6.633c0,4.027-0.081,7.833-4.769,7.833c-2.043,0-3.907-0.861-3.947-3.586H117.523z M118.865,121.146
	c1.142,0,1.584-0.763,1.584-2.684c-0.021-1.625-0.242-2.807-1.584-2.807c-1.402,0-1.563,1.203-1.563,2.807
	C117.302,120.384,117.743,121.146,118.865,121.146"/>
<path fill="#737477" d="M127.137,124.652c0,1.062,0.34,1.702,1.302,1.702c1.523,0,1.762-1.522,1.762-3.606v-0.681h-0.039
	c-0.481,0.721-1.422,1.202-2.665,1.202c-2.524,0-3.466-1.884-3.466-4.428c0-3.246,1.422-5.069,4.588-5.069
	c3.967,0,4.468,3.166,4.468,6.633c0,4.027-0.081,7.833-4.769,7.833c-2.043,0-3.906-0.861-3.947-3.586H127.137z M128.479,121.146
	c1.141,0,1.583-0.763,1.583-2.684c-0.021-1.625-0.241-2.807-1.583-2.807c-1.402,0-1.563,1.203-1.563,2.807
	C126.917,120.384,127.357,121.146,128.479,121.146"/>
<polygon fill="#737477" points="69.611,123.961 75.535,121.559 69.611,119.156 69.611,116.984 78.48,120.628 78.48,122.486 
	69.611,126.133 "/>
<path fill="#737477" d="M70.397,131.888h4.505c2.61,0,3.505,1.912,3.505,3.825c0,2.646-1.627,3.845-4.059,3.845h-1.376v5.095h-2.575
	V131.888z M72.972,137.662h1.144c1.02,0,1.716-0.607,1.716-1.913c0-1.25-0.501-1.967-1.788-1.967h-1.073V137.662z"/>
<polygon fill="#737477" points="86.812,131.888 86.812,133.998 82.252,133.998 82.252,137.001 86.543,137.001 86.543,139.109 
	82.252,139.109 82.252,142.543 86.99,142.543 86.99,144.652 79.678,144.652 79.678,131.888 "/>
<path fill="#737477" d="M88.278,131.888h4.756c2.109,0,3.396,1.108,3.396,3.29c0,1.697-0.679,2.842-2.127,3.146v0.034
	c1.751,0.234,2.02,1.199,2.056,3.898c0.019,1.341,0.09,2.038,0.572,2.288v0.107h-2.789c-0.25-0.357-0.305-0.84-0.322-1.341
	l-0.072-2.449c-0.035-1.001-0.483-1.609-1.519-1.609h-1.377v5.399h-2.574V131.888z M90.853,137.466h1.073
	c1.234,0,1.931-0.537,1.931-1.914c0-1.18-0.625-1.77-1.787-1.77h-1.217V137.466z"/>
<path fill="#737477" d="M103.673,136.196c0-1.859-0.375-2.664-1.538-2.664c-1.305,0-1.608,1.305-1.608,4.917
	c0,3.861,0.535,4.559,1.645,4.559c0.93,0,1.608-0.482,1.608-3.235h2.575c0,2.753-0.679,5.13-4.058,5.13
	c-3.862,0-4.345-2.752-4.345-6.632c0-3.881,0.483-6.633,4.345-6.633c3.683,0,3.951,2.699,3.951,4.559H103.673z"/>
<polygon fill="#737477" points="114.956,131.888 114.956,133.998 110.397,133.998 110.397,137.001 114.688,137.001 114.688,139.109 
	110.397,139.109 110.397,142.543 115.133,142.543 115.133,144.652 107.822,144.652 107.822,131.888 "/>
<polygon fill="#737477" points="119.391,131.888 122.501,140.631 122.537,140.631 122.537,131.888 124.897,131.888 124.897,144.652 
	121.964,144.652 118.818,135.713 118.782,135.713 118.782,144.652 116.423,144.652 116.423,131.888 "/>
<polygon fill="#737477" points="134.16,131.888 134.16,133.998 131.37,133.998 131.37,144.652 128.796,144.652 128.796,133.998 
	126.007,133.998 126.007,131.888 "/>
<path fill="#737477" d="M71.758,147.588h2.123l2.254,8.517h-1.789l-0.394-1.803h-2.266l-0.394,1.803h-1.789L71.758,147.588z
	 M71.984,152.896h1.67l-0.824-3.829h-0.023L71.984,152.896z"/>
<polygon fill="#737477" points="77.885,147.588 79.09,153.886 79.126,153.886 80.389,147.588 82.167,147.588 80.21,156.104 
	78.004,156.104 76.048,147.588 "/>
<path fill="#737477" d="M84.012,147.588h2.123l2.254,8.517h-1.789l-0.395-1.803H83.94l-0.392,1.803h-1.791L84.012,147.588z
	 M84.239,152.896h1.669l-0.823-3.829h-0.024L84.239,152.896z"/>
<rect x="89.066" y="147.587" fill="#737477" width="1.718" height="8.518"/>
<polygon fill="#737477" points="92.058,156.104 92.058,147.588 93.776,147.588 93.776,154.696 96.816,154.696 96.816,156.104 "/>
<path fill="#737477" d="M99.235,147.588h2.123l2.255,8.517h-1.789l-0.395-1.803h-2.266l-0.393,1.803h-1.79L99.235,147.588z
	 M99.462,152.896h1.67l-0.823-3.829h-0.025L99.462,152.896z"/>
<path fill="#737477" d="M104.206,147.587h2.875c1.407,0,2.421,0.525,2.421,2.161c0,0.917-0.441,1.62-1.288,1.859v0.023
	c0.942,0.131,1.55,0.846,1.55,1.979c0,1.336-0.656,2.494-2.659,2.494h-2.898V147.587z M105.923,151.082h0.489
	c0.942,0,1.372-0.322,1.372-1.121c0-0.811-0.395-1.109-1.241-1.109h-0.621V151.082z M105.923,154.84h0.668
	c0.823,0,1.384-0.298,1.384-1.289c0-0.988-0.561-1.276-1.312-1.276h-0.74V154.84z"/>
<rect x="110.918" y="147.587" fill="#737477" width="1.718" height="8.518"/>
<polygon fill="#737477" points="113.91,156.104 113.91,147.588 115.628,147.588 115.628,154.696 118.669,154.696 118.669,156.104 
	"/>
<rect x="119.514" y="147.587" fill="#737477" width="1.717" height="8.518"/>
<polygon fill="#737477" points="127.491,147.588 127.491,148.995 125.63,148.995 125.63,156.104 123.914,156.104 123.914,148.995 
	122.052,148.995 122.052,147.588 "/>
<polygon fill="#737477" points="129.599,147.588 130.72,150.879 130.744,150.879 131.937,147.588 133.797,147.588 131.59,152.752 
	131.59,156.104 129.874,156.104 129.874,152.752 127.666,147.588 "/>
<g>
	<polygon fill="#231F20" points="40.92,34.557 47.421,34.557 47.421,35.549 42.095,35.549 42.095,40.324 47.072,40.324 
		47.072,41.316 42.095,41.316 42.095,46.678 47.586,46.678 47.586,47.67 40.92,47.67 	"/>
	<path fill="#231F20" d="M49.113,37.918h0.991v1.359h0.038c0.551-1.083,1.506-1.579,2.498-1.579c1.487,0,2.497,0.771,2.497,2.607
		v7.364h-1.102v-7.052c0-1.341-0.551-2.002-1.671-2.002c-1.285,0-2.148,0.993-2.148,2.498v6.556h-1.103V37.918z"/>
	<path fill="#231F20" d="M57.343,37.919h1.103v10.89c0,1.671-0.937,2.241-2.113,2.241c-0.22,0-0.422-0.019-0.605-0.056v-0.917
		c0.128,0.018,0.256,0.055,0.422,0.055c0.771,0,1.193-0.33,1.193-1.689V37.919z M57.343,34.557h1.103v1.873h-1.103V34.557z"/>
	<path fill="#231F20" d="M63.496,37.697c2.149,0,3.361,1.708,3.361,5.088c0,3.397-1.212,5.104-3.361,5.104
		c-2.147,0-3.36-1.707-3.36-5.104C60.136,39.406,61.349,37.697,63.496,37.697 M63.496,46.973c1.232,0,2.186-1.065,2.186-4.187
		c0-3.104-0.954-4.169-2.186-4.169c-1.23,0-2.185,1.064-2.185,4.169C61.311,45.907,62.266,46.973,63.496,46.973"/>
	<path fill="#231F20" d="M67.539,37.918h1.175l2.185,8.447h0.038l1.965-8.447h1.175L71.231,48.46
		c-0.515,1.91-1.102,2.443-2.59,2.443c-0.293,0-0.514-0.018-0.734-0.036v-0.919c0.238,0.019,0.477,0.037,0.716,0.037
		c0.68,0,1.139-0.275,1.451-1.305l0.275-0.917L67.539,37.918z"/>
	<polygon fill="#231F20" points="81.5,34.557 83.356,44.254 83.412,44.254 85.357,34.557 88.094,34.557 85.082,47.67 81.685,47.67 
		78.672,34.557 	"/>
	<path fill="#231F20" d="M88.648,34.41h2.535v2.167h-2.535V34.41z M88.648,37.79h2.535v9.881h-2.535V37.79z"/>
	<path fill="#231F20" d="M92.966,37.79h2.424v1.323h0.036c0.515-0.955,1.23-1.58,2.277-1.58c0.147,0,0.313,0.018,0.46,0.037v2.424
		c-0.256-0.019-0.533-0.037-0.79-0.037c-0.881,0-1.874,0.459-1.874,1.782v5.932h-2.534V37.79z"/>
	<path fill="#231F20" d="M99.634,34.961h2.533v2.828h1.47v1.726h-1.47v5.345c0,0.771,0.166,1.084,0.901,1.084
		c0.201,0,0.404-0.018,0.569-0.037v1.762c-0.55,0.055-1.065,0.11-1.652,0.11c-1.984,0-2.351-0.606-2.351-2.607v-5.657h-1.286V37.79
		h1.286V34.961z"/>
	<path fill="#231F20" d="M109.589,46.514h-0.037c-0.533,0.972-1.451,1.414-2.517,1.414c-1.58,0-2.516-0.862-2.516-2.81V37.79h2.536
		v6.813c0,0.993,0.33,1.377,1.083,1.377c0.863,0,1.341-0.533,1.341-1.634V37.79h2.534v9.881h-2.424V46.514z"/>
	<path fill="#231F20" d="M113.688,40.82v-0.238c0-2.277,1.562-3.049,3.472-3.049c3.011,0,3.581,1.249,3.581,3.03v5.198
		c0,0.917,0.054,1.339,0.312,1.909h-2.424c-0.166-0.312-0.239-0.698-0.313-1.028h-0.038c-0.586,1.028-1.303,1.286-2.515,1.286
		c-1.763,0-2.388-1.506-2.388-2.829c0-1.854,0.752-2.607,2.498-3.085l1.433-0.386c0.752-0.202,1.01-0.496,1.01-1.157
		c0-0.753-0.331-1.212-1.175-1.212c-0.771,0-1.175,0.515-1.175,1.286v0.275H113.688z M118.316,42.73
		c-0.35,0.256-0.771,0.423-1.083,0.496c-1.029,0.22-1.433,0.716-1.433,1.597c0,0.753,0.276,1.378,0.956,1.378
		c0.679,0,1.561-0.44,1.561-1.525V42.73z"/>
	<rect x="122.633" y="34.557" fill="#231F20" width="2.535" height="13.113"/>
	<rect x="127.043" y="34.557" fill="#231F20" width="2.535" height="13.113"/>
	<path fill="#231F20" d="M131.36,49.011c0.221,0.037,0.441,0.055,0.661,0.055c0.936,0,1.285-0.515,1.358-1.396l-2.772-9.881h2.644
		l1.47,6.833h0.036l1.287-6.833h2.534l-2.388,9.22c-0.88,3.417-1.451,3.894-3.802,3.894h-1.027V49.011z"/>
	<polygon fill="#231F20" points="143.521,45.742 148.352,36.724 143.852,36.724 143.852,34.557 151.4,34.557 151.4,36.56 
		146.497,45.503 151.473,45.503 151.473,47.67 143.521,47.67 	"/>
	<path fill="#231F20" d="M154.928,43.115v0.79c0,1.157,0.313,2.296,1.249,2.296c0.845,0,1.194-0.644,1.34-1.855h2.278
		c-0.092,2.295-1.193,3.581-3.581,3.581c-3.673,0-3.819-2.828-3.819-5.289c0-2.645,0.514-5.105,3.93-5.105
		c2.958,0,3.617,1.983,3.617,5.015v0.568H154.928z M157.518,41.61c-0.053-1.506-0.237-2.351-1.284-2.351
		c-1.01,0-1.305,1.047-1.305,1.966v0.385H157.518z"/>
	<path fill="#231F20" d="M161.268,37.79h2.422v1.323h0.038c0.515-0.955,1.231-1.58,2.277-1.58c0.147,0,0.312,0.018,0.46,0.037v2.424
		c-0.258-0.019-0.534-0.037-0.79-0.037c-0.883,0-1.873,0.459-1.873,1.782v5.932h-2.535V37.79z"/>
	<path fill="#231F20" d="M170.948,37.533c3.048-0.055,3.893,1.764,3.893,5.197c0,3.379-0.991,5.198-3.893,5.198
		c-3.049,0.055-3.895-1.764-3.895-5.198C167.054,39.351,168.046,37.533,170.948,37.533 M170.948,46.202
		c1.027,0,1.359-1.01,1.359-3.472s-0.332-3.471-1.359-3.471c-1.249,0-1.359,1.451-1.359,3.471
		C169.589,44.75,169.699,46.202,170.948,46.202"/>
	<path fill="#231F20" d="M180.814,34.557h4.336c3.671,0,4.332,2.517,4.332,6.373c0,4.646-0.991,6.74-4.499,6.74h-4.169V34.557z
		 M183.459,45.724h1.176c1.837,0,2.203-1.158,2.203-4.72c0-2.975-0.238-4.499-2.26-4.499h-1.119V45.724z"/>
	<path fill="#231F20" d="M194.721,37.533c3.048-0.055,3.893,1.764,3.893,5.197c0,3.379-0.991,5.198-3.893,5.198
		c-3.049,0.055-3.894-1.764-3.894-5.198C190.827,39.351,191.819,37.533,194.721,37.533 M194.721,46.202
		c1.028,0,1.359-1.01,1.359-3.472s-0.331-3.471-1.359-3.471c-1.249,0-1.359,1.451-1.359,3.471
		C193.361,44.75,193.472,46.202,194.721,46.202"/>
	<polygon fill="#231F20" points="199.259,37.79 201.794,37.79 202.95,44.805 202.987,44.805 204.218,37.79 206.973,37.79 
		208.277,44.805 208.313,44.805 209.507,37.79 211.932,37.79 209.801,47.67 206.918,47.67 205.614,40.654 205.577,40.654 
		204.347,47.67 201.408,47.67 	"/>
	<path fill="#231F20" d="M212.909,37.79h2.424v1.157h0.037c0.532-0.974,1.451-1.414,2.517-1.414c1.579,0,2.515,0.863,2.515,2.81
		v7.328h-2.532v-6.813c0-0.993-0.332-1.377-1.085-1.377c-0.864,0-1.34,0.531-1.34,1.634v6.557h-2.535V37.79z"/>
	<path fill="#231F20" d="M222.646,34.961h2.533v2.828h1.47v1.726h-1.47v5.345c0,0.771,0.166,1.084,0.899,1.084
		c0.203,0,0.404-0.018,0.57-0.037v1.762c-0.552,0.055-1.065,0.11-1.653,0.11c-1.983,0-2.35-0.606-2.35-2.607v-5.657h-1.286V37.79
		h1.286V34.961z"/>
	<path fill="#231F20" d="M227.625,34.41h2.534v2.167h-2.534V34.41z M227.625,37.79h2.534v9.881h-2.534V37.79z"/>
	<path fill="#231F20" d="M231.94,37.79h2.425V38.8h0.037c0.643-0.901,1.434-1.268,2.497-1.268c1.157,0,2.003,0.568,2.277,1.58h0.038
		c0.385-1.047,1.304-1.58,2.497-1.58c1.671,0,2.46,1.047,2.46,2.957v7.181h-2.533v-6.906c0-0.827-0.276-1.285-0.993-1.285
		c-0.806,0-1.321,0.55-1.321,1.689v6.501h-2.534v-6.906c0-0.827-0.275-1.285-0.993-1.285c-0.808,0-1.321,0.55-1.321,1.689v6.501
		h-2.535V37.79z"/>
	<path fill="#231F20" d="M248.034,43.115v0.79c0,1.157,0.313,2.296,1.248,2.296c0.846,0,1.194-0.644,1.341-1.855h2.278
		c-0.092,2.295-1.194,3.581-3.582,3.581c-3.674,0-3.82-2.828-3.82-5.289c0-2.645,0.514-5.105,3.931-5.105
		c2.956,0,3.618,1.983,3.618,5.015v0.568H248.034z M250.623,41.61c-0.055-1.506-0.238-2.351-1.286-2.351
		c-1.009,0-1.303,1.047-1.303,1.966v0.385H250.623z"/>
</g>
</svg>
