<?xml version="1.0" encoding="utf-8"?>
<!-- Generator: Adobe Illustrator 14.0.0, SVG Export Plug-In . SVG Version: 6.00 Build 43363)  -->
<!DOCTYPE svg PUBLIC "-//W3C//DTD SVG 1.1//EN" "http://www.w3.org/Graphics/SVG/1.1/DTD/svg11.dtd">
<svg version="1.1" id="Layer_1" xmlns="http://www.w3.org/2000/svg" xmlns:xlink="http://www.w3.org/1999/xlink" x="0px" y="0px"
	 width="325px" height="207px" viewBox="0 0 325 207" enable-background="new 0 0 325 207" xml:space="preserve">
<g>
</g>
<g>
</g>
<g>
	<path fill="#231F20" d="M45.028,12.632c2.67,0,4.168,2.06,4.168,6.729s-1.498,6.729-4.168,6.729c-2.669,0-4.168-2.061-4.168-6.729
		S42.359,12.632,45.028,12.632 M45.028,25.104c1.865,0,2.999-1.532,2.999-5.744s-1.134-5.745-2.999-5.745s-2.997,1.533-2.997,5.745
		S43.163,25.104,45.028,25.104"/>
	<path fill="#231F20" d="M51.175,16.188h1.098v6.82c0,1.568,0.529,2.17,1.682,2.17c1.242,0,2.12-0.985,2.12-2.481v-6.509h1.097
		v9.683h-0.986v-1.35h-0.037c-0.549,1.077-1.499,1.567-2.486,1.567c-1.48,0-2.486-0.766-2.486-2.588V16.188z"/>
	<path fill="#231F20" d="M59.295,16.188h1.096v1.514h0.038c0.42-1.076,1.314-1.732,2.449-1.732c0.128,0,0.257,0.019,0.383,0.055
		v1.093c-0.181-0.036-0.365-0.055-0.529-0.055c-1.207,0-2.341,0.876-2.341,2.754v6.054h-1.096V16.188z"/>
	<path fill="#231F20" d="M76.666,21.458c-0.165,2.972-1.537,4.631-3.876,4.631c-2.669,0-4.168-2.061-4.168-6.728
		c0-4.668,1.499-6.729,4.168-6.729c2.65,0,3.748,1.878,3.748,4.011h-1.171c0-1.769-0.896-3.028-2.577-3.028
		c-1.866,0-2.998,1.533-2.998,5.745s1.132,5.744,2.998,5.744c1.646,0,2.577-1.405,2.705-3.646H76.666z"/>
	<path fill="#231F20" d="M78.26,16.188h1.096v6.82c0,1.568,0.53,2.17,1.683,2.17c1.243,0,2.12-0.985,2.12-2.481v-6.509h1.097v9.683
		h-0.986v-1.35h-0.037c-0.548,1.077-1.498,1.567-2.486,1.567c-1.48,0-2.485-0.766-2.485-2.588V16.188z"/>
	<path fill="#231F20" d="M87.914,21.056c-1.37-0.528-1.865-1.331-1.865-2.297c0-1.987,1.244-2.791,2.889-2.791
		c1.828,0,2.67,0.931,2.67,2.699v0.274h-1.097v-0.274c0-1.258-0.585-1.786-1.592-1.786c-1.279,0-1.771,0.674-1.771,1.641
		c0,0.674,0.219,1.204,1.316,1.623l1.59,0.602c1.316,0.493,1.811,1.404,1.811,2.462c0,1.66-0.952,2.88-3,2.88
		c-1.992,0-2.979-0.82-2.979-3.009v-0.31h1.098v0.255c0,1.422,0.622,2.152,1.864,2.152c1.17,0,1.919-0.657,1.919-1.733
		c0-0.856-0.347-1.404-1.315-1.786L87.914,21.056z"/>
	<path fill="#231F20" d="M93.895,17.1H92.56v-0.912h1.335v-2.68h1.099v2.68h1.718V17.1h-1.718v6.947
		c0,0.766,0.328,1.021,1.041,1.021c0.219,0,0.438-0.037,0.677-0.109v0.912c-0.128,0.073-0.403,0.109-0.768,0.109
		c-1.481,0-2.049-0.401-2.049-1.694V17.1z"/>
	<path fill="#231F20" d="M100.733,15.969c2.139,0,3.347,1.696,3.347,5.052c0,3.373-1.208,5.068-3.347,5.068
		s-3.346-1.695-3.346-5.068C97.388,17.665,98.595,15.969,100.733,15.969 M100.733,25.178c1.226,0,2.176-1.058,2.176-4.157
		c0-3.083-0.95-4.139-2.176-4.139c-1.225,0-2.176,1.057-2.176,4.139C98.558,24.12,99.509,25.178,100.733,25.178"/>
	<path fill="#231F20" d="M105.764,16.188h0.987v1.35h0.037c0.512-1.076,1.39-1.568,2.468-1.568c1.17,0,1.883,0.71,2.029,1.695h0.037
		c0.438-1.076,1.225-1.695,2.467-1.695c1.355,0,2.249,0.766,2.249,2.498v7.404h-1.097v-7.24c0-1.148-0.53-1.75-1.517-1.75
		c-1.098,0-1.975,0.985-1.975,2.48v6.509h-1.098v-7.24c0-1.148-0.529-1.75-1.518-1.75c-1.096,0-1.974,0.985-1.974,2.48v6.509h-1.098
		V16.188z"/>
	<path fill="#231F20" d="M124.215,22.661c-0.165,2.061-1.298,3.428-3.127,3.428c-2.047,0-3.255-1.422-3.255-5.069
		c0-3.354,1.208-5.051,3.347-5.051c2.157,0,3.127,1.477,3.127,4.705v0.401h-5.302v0.456c0,2.789,0.986,3.647,2.065,3.647
		c1.152,0,1.865-0.821,2.047-2.517H124.215z M123.136,20.163c-0.036-2.407-0.713-3.283-2.065-3.283
		c-1.354,0-2.029,0.876-2.065,3.283H123.136z"/>
	<path fill="#231F20" d="M126.027,16.188h1.097v1.514h0.037c0.42-1.076,1.315-1.732,2.449-1.732c0.127,0,0.257,0.019,0.383,0.055
		v1.093c-0.181-0.036-0.365-0.055-0.529-0.055c-1.207,0-2.34,0.876-2.34,2.754v6.054h-1.097V16.188z"/>
	<path fill="#231F20" d="M132.647,21.056c-1.372-0.528-1.864-1.331-1.864-2.297c0-1.987,1.242-2.791,2.889-2.791
		c1.827,0,2.669,0.931,2.669,2.699v0.274h-1.098v-0.274c0-1.258-0.585-1.786-1.591-1.786c-1.278,0-1.773,0.674-1.773,1.641
		c0,0.674,0.22,1.204,1.316,1.623l1.591,0.602c1.316,0.493,1.811,1.404,1.811,2.462c0,1.66-0.951,2.88-2.999,2.88
		c-1.993,0-2.979-0.82-2.979-3.009v-0.31h1.098v0.255c0,1.422,0.621,2.152,1.863,2.152c1.17,0,1.92-0.657,1.92-1.733
		c0-0.856-0.349-1.404-1.316-1.786L132.647,21.056z"/>
</g>
<g>
	<path fill="#231F20" d="M44.961,42.103V41.12h4.164v6.62h-0.909v-2.145H48.18c-0.4,1.436-1.563,2.364-2.855,2.364
		c-2.654,0-4.146-2.055-4.146-6.71s1.492-6.711,4.146-6.711c2.474,0,3.583,1.618,3.728,3.855h-1.164
		c0-1.563-0.855-2.873-2.564-2.873c-1.854,0-2.982,1.528-2.982,5.729c0,4.201,1.128,5.728,2.982,5.728
		c1.746,0,2.71-1.564,2.71-4.602v-0.272H44.961z"/>
	<path fill="#231F20" d="M57.039,44.539c-0.164,2.056-1.292,3.418-3.11,3.418c-2.036,0-3.237-1.417-3.237-5.055
		c0-3.345,1.201-5.037,3.328-5.037c2.146,0,3.11,1.473,3.11,4.692v0.4h-5.274v0.454c0,2.782,0.982,3.637,2.055,3.637
		c1.146,0,1.855-0.819,2.037-2.51H57.039z M55.965,42.047c-0.036-2.399-0.709-3.273-2.055-3.273s-2.018,0.874-2.055,3.273H55.965z"
		/>
	<path fill="#231F20" d="M59.241,38.993h-1.328v-0.909h1.328v-2.673h1.092v2.673h1.708v0.909h-1.708v6.928
		c0,0.764,0.327,1.018,1.035,1.018c0.218,0,0.437-0.037,0.673-0.108v0.909c-0.127,0.072-0.4,0.109-0.764,0.109
		c-1.472,0-2.036-0.4-2.036-1.689V38.993z"/>
	<path fill="#231F20" d="M67.445,34.755h4.383c2.146,0,3.691,0.8,3.691,3.292c0,1.4-0.673,2.473-1.964,2.836v0.037
		c1.436,0.199,2.364,1.291,2.364,3.019c0,2.036-1,3.8-4.055,3.8h-4.419V34.755z M70.063,40.084h0.746
		c1.437,0,2.091-0.491,2.091-1.71c0-1.235-0.6-1.69-1.891-1.69h-0.945V40.084z M70.063,45.812h1.019c1.254,0,2.11-0.454,2.11-1.964
		c0-1.509-0.855-1.946-2.001-1.946h-1.127V45.812z"/>
	<rect x="77.577" y="34.755" fill="#231F20" width="2.51" height="12.984"/>
	<path fill="#231F20" d="M81.833,40.956V40.72c0-2.254,1.545-3.018,3.436-3.018c2.983,0,3.546,1.235,3.546,3v5.147
		c0,0.909,0.055,1.326,0.31,1.89h-2.4c-0.164-0.309-0.236-0.69-0.309-1.019h-0.036c-0.582,1.019-1.292,1.273-2.491,1.273
		c-1.745,0-2.364-1.491-2.364-2.801c0-1.836,0.746-2.582,2.473-3.055l1.418-0.382c0.747-0.2,1-0.491,1-1.145
		c0-0.745-0.328-1.201-1.164-1.201c-0.763,0-1.163,0.51-1.163,1.273v0.272H81.833z M86.416,42.848
		c-0.346,0.254-0.764,0.419-1.073,0.492c-1.017,0.218-1.417,0.709-1.417,1.581c0,0.747,0.273,1.365,0.945,1.365
		c0.673,0,1.546-0.436,1.546-1.51V42.848z"/>
	<polygon fill="#231F20" points="90.201,45.812 94.11,39.992 90.382,39.992 90.382,37.956 97.074,37.956 97.074,39.884 
		93.165,45.702 97.074,45.702 97.074,47.739 90.201,47.739 	"/>
	<path fill="#231F20" d="M98.44,34.61h2.509v2.146H98.44V34.61z M98.44,37.956h2.509v9.783H98.44V37.956z"/>
	<path fill="#231F20" d="M102.715,37.956h2.4v1.146h0.036c0.528-0.964,1.438-1.4,2.492-1.4c1.564,0,2.492,0.854,2.492,2.781v7.256
		h-2.51v-6.747c0-0.982-0.327-1.363-1.072-1.363c-0.855,0-1.329,0.526-1.329,1.618v6.491h-2.509V37.956z"/>
	<path fill="#231F20" d="M119.139,37.956v9.292c0,2.582-1.146,3.837-4.073,3.837c-2.127,0-3.328-0.946-3.328-2.619h2.4
		c0,0.328,0.145,0.582,0.383,0.746c0.236,0.164,0.527,0.274,0.836,0.274c1.019,0,1.382-0.766,1.382-1.765V46.43h-0.037
		c-0.51,0.728-1.291,1.2-2.091,1.2c-2,0-3.001-1.363-3.001-4.946c0-2.291,0.346-4.981,3.074-4.981c0.691,0,1.545,0.326,2.019,1.344
		h0.037v-1.091H119.139z M115.374,45.702c1.056,0,1.364-1.145,1.364-2.8c0-2.382-0.309-3.273-1.31-3.273
		c-1.11,0-1.31,0.891-1.31,3.528C114.119,44.502,114.319,45.702,115.374,45.702"/>
	<path fill="#231F20" d="M125.343,34.755h4.583c2.655,0,3.563,1.946,3.563,3.891c0,2.692-1.654,3.911-4.127,3.911h-1.4v5.182h-2.619
		V34.755z M127.961,40.63h1.165c1.036,0,1.745-0.619,1.745-1.946c0-1.273-0.51-2-1.818-2h-1.092V40.63z"/>
	<path fill="#231F20" d="M136.421,43.229v0.782c0,1.146,0.31,2.274,1.236,2.274c0.836,0,1.183-0.637,1.328-1.837h2.254
		c-0.091,2.272-1.181,3.545-3.546,3.545c-3.637,0-3.782-2.799-3.782-5.236c0-2.619,0.509-5.055,3.891-5.055
		c2.928,0,3.582,1.962,3.582,4.964v0.563H136.421z M138.985,41.738c-0.054-1.491-0.236-2.327-1.273-2.327
		c-1,0-1.291,1.036-1.291,1.946v0.381H138.985z"/>
	<path fill="#231F20" d="M142.697,37.956h2.4v1.309h0.037c0.509-0.944,1.219-1.563,2.255-1.563c0.145,0,0.309,0.018,0.455,0.036v2.4
		c-0.255-0.019-0.527-0.037-0.782-0.037c-0.873,0-1.855,0.455-1.855,1.765v5.873h-2.509V37.956z"/>
	<path fill="#231F20" d="M149.3,39.665h-1.273v-1.709h1.273v-1.109c0-1.764,1-2.347,2.619-2.347c0.454,0,0.891,0.02,1.344,0.056
		v1.782c-0.162-0.019-0.326-0.019-0.49-0.019c-0.709,0-0.964,0.219-0.964,0.782v0.854h1.454v1.709h-1.454v8.074H149.3V39.665z"/>
	<path fill="#231F20" d="M157.666,37.703c3.019-0.056,3.855,1.745,3.855,5.145c0,3.346-0.981,5.146-3.855,5.146
		c-3.018,0.054-3.856-1.746-3.856-5.146C153.81,39.501,154.793,37.703,157.666,37.703 M157.666,46.285c1.019,0,1.346-1,1.346-3.438
		s-0.327-3.437-1.346-3.437c-1.237,0-1.346,1.437-1.346,3.437S156.429,46.285,157.666,46.285"/>
	<path fill="#231F20" d="M162.87,37.956h2.399v1.309h0.037c0.51-0.944,1.219-1.563,2.255-1.563c0.146,0,0.311,0.018,0.455,0.036v2.4
		c-0.254-0.019-0.527-0.037-0.782-0.037c-0.872,0-1.854,0.455-1.854,1.765v5.873h-2.509V37.956z"/>
	<path fill="#231F20" d="M168.927,37.956h2.399v1h0.036c0.638-0.892,1.42-1.254,2.474-1.254c1.146,0,1.983,0.563,2.255,1.563h0.037
		c0.382-1.037,1.29-1.563,2.474-1.563c1.653,0,2.436,1.036,2.436,2.927v7.11h-2.509v-6.837c0-0.819-0.274-1.272-0.983-1.272
		c-0.799,0-1.309,0.544-1.309,1.672v6.438h-2.51v-6.837c0-0.819-0.271-1.272-0.981-1.272c-0.8,0-1.311,0.544-1.311,1.672v6.438
		h-2.508V37.956z"/>
	<path fill="#231F20" d="M182.697,40.956V40.72c0-2.254,1.545-3.018,3.437-3.018c2.981,0,3.547,1.235,3.547,3v5.147
		c0,0.909,0.053,1.326,0.309,1.89h-2.4c-0.164-0.309-0.236-0.69-0.309-1.019h-0.037c-0.582,1.019-1.291,1.273-2.492,1.273
		c-1.744,0-2.362-1.491-2.362-2.801c0-1.836,0.744-2.582,2.472-3.055l1.418-0.382c0.746-0.2,1.002-0.491,1.002-1.145
		c0-0.745-0.328-1.201-1.164-1.201c-0.765,0-1.164,0.51-1.164,1.273v0.272H182.697z M187.28,42.848
		c-0.347,0.254-0.765,0.419-1.074,0.492c-1.019,0.218-1.418,0.709-1.418,1.581c0,0.747,0.272,1.365,0.945,1.365
		s1.547-0.436,1.547-1.51V42.848z"/>
	<path fill="#231F20" d="M191.464,37.956h2.399v1.146h0.037c0.527-0.964,1.437-1.4,2.492-1.4c1.563,0,2.49,0.854,2.49,2.781v7.256
		h-2.509v-6.747c0-0.982-0.328-1.363-1.073-1.363c-0.854,0-1.327,0.526-1.327,1.618v6.491h-2.51V37.956z"/>
	<path fill="#231F20" d="M205.269,41.483c0-0.945-0.183-1.963-1.128-1.963c-1.236,0-1.436,1.091-1.436,3.346
		c0,2.419,0.218,3.418,1.346,3.418c0.837,0,1.218-0.708,1.218-2.292h2.4c0,2.565-1.072,4.001-3.728,4.001
		c-2.51,0-3.746-1.218-3.746-5.146c0-4.019,1.654-5.146,3.964-5.146s3.51,1.472,3.51,3.781H205.269z"/>
	<path fill="#231F20" d="M211.127,43.229v0.782c0,1.146,0.309,2.274,1.236,2.274c0.836,0,1.182-0.637,1.327-1.837h2.255
		c-0.091,2.272-1.182,3.545-3.545,3.545c-3.638,0-3.783-2.799-3.783-5.236c0-2.619,0.51-5.055,3.892-5.055
		c2.928,0,3.582,1.962,3.582,4.964v0.563H211.127z M213.69,41.738c-0.053-1.491-0.236-2.327-1.272-2.327
		c-1.001,0-1.291,1.036-1.291,1.946v0.381H213.69z"/>
</g>
<g>
	<g>
		<path fill="#6D6E70" d="M201.431,167.714h1.087l2.869,9.715h-0.925l-0.788-2.83h-3.401l-0.788,2.83h-0.927L201.431,167.714z
			 M203.482,173.863l-1.495-5.469h-0.028l-1.496,5.469H203.482z"/>
		<path fill="#6D6E70" d="M210.502,175.034c-0.122,1.537-0.966,2.557-2.3,2.557c-1.523,0-2.42-1.061-2.42-3.781
			c0-2.502,0.896-3.77,2.489-3.77c1.36,0,2.148,0.83,2.23,2.313h-0.815c-0.097-1.131-0.546-1.633-1.415-1.633
			c-0.885,0-1.62,0.544-1.62,3.103c0,2.721,0.776,3.088,1.538,3.088c0.829,0,1.359-0.612,1.497-1.877H210.502z"/>
		<path fill="#6D6E70" d="M211.996,170.884h-0.992v-0.681h0.992v-1.999h0.816v1.999h1.278v0.681h-1.278v5.183
			c0,0.573,0.246,0.763,0.777,0.763c0.162,0,0.326-0.026,0.501-0.08v0.679c-0.095,0.055-0.298,0.082-0.569,0.082
			c-1.103,0-1.525-0.299-1.525-1.266V170.884z"/>
		<path fill="#6D6E70" d="M214.976,170.203h0.816v5.089c0,1.169,0.393,1.619,1.252,1.619c0.925,0,1.578-0.735,1.578-1.85v-4.858
			h0.816v7.225h-0.734v-1.006h-0.029c-0.407,0.802-1.114,1.17-1.849,1.17c-1.104,0-1.851-0.571-1.851-1.932V170.203z"/>
		<path fill="#6D6E70" d="M220.865,172.354c0-1.482,0.707-2.313,2.229-2.313c1.497,0,2.041,0.774,2.041,1.918v4.271
			c0,0.41,0.136,0.599,0.423,0.599h0.231v0.6c-0.15,0.054-0.271,0.081-0.381,0.081c-0.639,0-1.048-0.149-1.048-0.897v-0.245h-0.026
			c-0.327,0.952-1.062,1.223-1.865,1.223c-1.265,0-1.837-0.788-1.837-2.039c0-0.952,0.436-1.714,1.456-1.999l1.537-0.436
			c0.571-0.164,0.695-0.3,0.695-1.145c0-0.924-0.519-1.252-1.253-1.252c-0.966,0-1.389,0.588-1.389,1.634H220.865z M224.321,173.347
			h-0.028c-0.081,0.244-0.544,0.395-0.871,0.477l-0.68,0.176c-0.816,0.218-1.237,0.64-1.237,1.497c0,0.845,0.435,1.415,1.142,1.415
			c0.994,0,1.675-0.748,1.675-2.04V173.347z"/>
		<rect x="226.862" y="167.714" fill="#6D6E70" width="0.815" height="9.715"/>
		<path fill="#6D6E70" d="M232.548,167.714h2.898c1.618,0,2.517,0.926,2.517,2.435c0,1.171-0.464,2.22-1.754,2.464v0.026
			c1.21,0.11,1.618,0.804,1.658,2.301l0.027,1.061c0.014,0.53,0.068,1.048,0.409,1.429h-1.021c-0.204-0.34-0.244-0.843-0.258-1.36
			l-0.027-0.816c-0.055-1.715-0.367-2.26-1.933-2.26h-1.646v4.437h-0.871V167.714z M233.419,172.258h1.497
			c1.373,0,2.177-0.625,2.177-1.904c0-1.184-0.504-1.906-2.082-1.906h-1.592V172.258z"/>
		<path fill="#6D6E70" d="M243.824,175.033c-0.122,1.538-0.966,2.558-2.326,2.558c-1.524,0-2.422-1.062-2.422-3.781
			c0-2.502,0.897-3.769,2.489-3.769c1.605,0,2.327,1.102,2.327,3.511v0.298h-3.946v0.34c0,2.083,0.734,2.722,1.539,2.722
			c0.856,0,1.388-0.612,1.522-1.878H243.824z M243.022,173.17c-0.028-1.796-0.53-2.45-1.537-2.45c-1.008,0-1.512,0.654-1.539,2.45
			H243.022z"/>
		<path fill="#6D6E70" d="M246.313,173.836c-1.021-0.394-1.388-0.993-1.388-1.714c0-1.482,0.924-2.082,2.15-2.082
			c1.36,0,1.985,0.694,1.985,2.014v0.204h-0.816v-0.204c0-0.938-0.436-1.332-1.184-1.332c-0.952,0-1.318,0.501-1.318,1.223
			c0,0.505,0.162,0.898,0.979,1.213l1.184,0.448c0.979,0.366,1.347,1.047,1.347,1.837c0,1.238-0.707,2.149-2.23,2.149
			c-1.483,0-2.219-0.612-2.219-2.245v-0.231h0.816v0.19c0,1.062,0.463,1.605,1.389,1.605c0.87,0,1.429-0.488,1.429-1.292
			c0-0.641-0.26-1.047-0.979-1.335L246.313,173.836z"/>
		<path fill="#6D6E70" d="M250.46,170.203h0.818v5.089c0,1.169,0.394,1.619,1.25,1.619c0.927,0,1.579-0.735,1.579-1.85v-4.858h0.815
			v7.225h-0.735v-1.006h-0.026c-0.407,0.802-1.115,1.17-1.851,1.17c-1.102,0-1.851-0.571-1.851-1.932V170.203z"/>
		<rect x="256.555" y="167.714" fill="#6D6E70" width="0.816" height="9.715"/>
		<path fill="#6D6E70" d="M259.301,170.884h-0.993v-0.681h0.993v-1.999h0.816v1.999h1.279v0.681h-1.279v5.183
			c0,0.573,0.246,0.763,0.776,0.763c0.163,0,0.326-0.026,0.503-0.08v0.679c-0.096,0.055-0.3,0.082-0.571,0.082
			c-1.103,0-1.524-0.299-1.524-1.266V170.884z"/>
		<path fill="#6D6E70" d="M263.422,173.836c-1.02-0.394-1.387-0.993-1.387-1.714c0-1.482,0.925-2.082,2.15-2.082
			c1.359,0,1.984,0.694,1.984,2.014v0.204h-0.814v-0.204c0-0.938-0.436-1.332-1.185-1.332c-0.952,0-1.319,0.501-1.319,1.223
			c0,0.505,0.163,0.898,0.98,1.213l1.183,0.448c0.979,0.366,1.347,1.047,1.347,1.837c0,1.238-0.707,2.149-2.231,2.149
			c-1.482,0-2.218-0.612-2.218-2.245v-0.231h0.816v0.19c0,1.062,0.463,1.605,1.388,1.605c0.871,0,1.429-0.488,1.429-1.292
			c0-0.641-0.259-1.047-0.979-1.335L263.422,173.836z"/>
		<path fill="#6D6E70" d="M271.135,170.884h-0.993v-0.681h0.993v-0.856c0-0.995,0.204-1.742,1.578-1.742
			c0.244,0,0.367,0.014,0.517,0.041v0.681c-0.123-0.028-0.244-0.041-0.394-0.041c-0.599,0-0.885,0.231-0.885,1.062v0.856h1.278
			v0.681h-1.278v6.544h-0.816V170.884z"/>
		<path fill="#6D6E70" d="M276.276,170.04c1.592,0,2.489,1.268,2.489,3.77c0,2.516-0.897,3.781-2.489,3.781
			c-1.593,0-2.49-1.266-2.49-3.781C273.786,171.308,274.684,170.04,276.276,170.04 M276.276,176.911
			c0.912,0,1.618-0.788,1.618-3.102c0-2.3-0.706-3.089-1.618-3.089s-1.619,0.789-1.619,3.089
			C274.657,176.123,275.364,176.911,276.276,176.911"/>
		<path fill="#6D6E70" d="M279.962,170.203h0.816v1.131h0.026c0.313-0.806,0.979-1.293,1.823-1.293c0.096,0,0.191,0.013,0.285,0.04
			v0.815c-0.136-0.025-0.272-0.04-0.394-0.04c-0.898,0-1.741,0.653-1.741,2.055v4.517h-0.816V170.203z"/>
		<path fill="#6D6E70" d="M177.666,191.273h-3.713v-0.814l3.713-6.342h0.817v6.422h1.129v0.734h-1.129v2.477h-0.817V191.273z
			 M177.666,190.539v-5.033h-0.026l-2.951,5.033H177.666z"/>
		<rect x="180.834" y="189.519" fill="#6D6E70" width="2.954" height="0.736"/>
		<polygon fill="#6D6E70" points="185.337,184.037 186.508,184.037 190.221,192.499 190.249,192.499 190.249,184.037 
			191.119,184.037 191.119,193.75 189.949,193.75 186.234,185.288 186.208,185.288 186.208,193.75 185.337,193.75 		"/>
		<path fill="#6D6E70" d="M194.776,186.363c1.593,0,2.49,1.265,2.49,3.769c0,2.517-0.897,3.782-2.49,3.782
			c-1.591,0-2.489-1.266-2.489-3.782C192.287,187.628,193.186,186.363,194.776,186.363 M194.776,193.234
			c0.912,0,1.62-0.789,1.62-3.103c0-2.3-0.708-3.089-1.62-3.089c-0.91,0-1.618,0.789-1.618,3.089
			C193.158,192.445,193.866,193.234,194.776,193.234"/>
		<path fill="#6D6E70" d="M202.272,192.554h-0.027c-0.218,0.83-0.913,1.36-1.77,1.36c-1.591,0-2.313-1.278-2.313-3.782
			c0-2.49,0.722-3.769,2.313-3.769c0.898,0,1.511,0.489,1.687,1.251h0.027v-3.577h0.818v9.714h-0.735V192.554z M200.612,193.234
			c0.829,0,1.577-0.424,1.577-3.103c0-2.667-0.748-3.089-1.577-3.089c-0.816,0-1.579,0.422-1.579,3.089
			C199.033,192.811,199.796,193.234,200.612,193.234"/>
		<path fill="#6D6E70" d="M208.951,191.356c-0.124,1.536-0.966,2.558-2.327,2.558c-1.523,0-2.422-1.063-2.422-3.783
			c0-2.502,0.898-3.768,2.49-3.768c1.605,0,2.326,1.102,2.326,3.511v0.298h-3.945v0.339c0,2.084,0.735,2.724,1.537,2.724
			c0.856,0,1.388-0.614,1.523-1.878H208.951z M208.147,189.492c-0.026-1.796-0.53-2.449-1.537-2.449s-1.51,0.653-1.537,2.449
			H208.147z"/>
		<path fill="#6D6E70" d="M219.438,190.458c-0.123,2.218-1.144,3.456-2.885,3.456c-1.986,0-3.102-1.536-3.102-5.021
			c0-3.483,1.115-5.02,3.102-5.02c1.973,0,2.788,1.401,2.788,2.993h-0.869c0-1.321-0.667-2.26-1.919-2.26
			c-1.388,0-2.232,1.144-2.232,4.286s0.845,4.286,2.232,4.286c1.225,0,1.919-1.049,2.014-2.722H219.438z"/>
		<path fill="#6D6E70" d="M224.852,186.525c0-1.197-0.559-1.918-1.742-1.918c-1.183,0-1.836,0.775-1.836,1.741
			c0,2.898,4.707,1.306,4.707,4.723c0,1.876-1.17,2.843-2.938,2.843c-1.824,0-2.83-0.979-2.83-2.885v-0.286h0.869v0.367
			c0,1.239,0.654,2.069,1.933,2.069c1.224,0,2.095-0.613,2.095-1.974c0-2.884-4.708-1.237-4.708-4.761
			c0-1.524,0.994-2.571,2.682-2.571c1.809,0,2.64,0.924,2.64,2.651H224.852z"/>
		<path fill="#6D6E70" d="M226.917,184.281h5.415v0.734c-2.066,2.545-3.251,6.122-3.455,8.734h-0.925
			c0.149-2.653,1.66-6.436,3.563-8.734h-4.599V184.281z"/>
		<path fill="#6D6E70" d="M236.153,184.117c2.191,0,2.708,2.056,2.708,4.897c0,2.844-0.517,4.899-2.708,4.899
			c-2.189,0-2.707-2.056-2.707-4.899C233.446,186.173,233.964,184.117,236.153,184.117 M236.153,193.234
			c1.32,0,1.839-1.13,1.839-4.22c0-3.089-0.519-4.217-1.839-4.217c-1.318,0-1.836,1.128-1.836,4.217
			C234.317,192.104,234.835,193.234,236.153,193.234"/>
		<path fill="#6D6E70" d="M242.683,184.117c2.19,0,2.708,2.056,2.708,4.897c0,2.844-0.518,4.899-2.708,4.899
			c-2.189,0-2.708-2.056-2.708-4.899C239.975,186.173,240.493,184.117,242.683,184.117 M242.683,193.234
			c1.32,0,1.838-1.13,1.838-4.22c0-3.089-0.518-4.217-1.838-4.217c-1.319,0-1.836,1.128-1.836,4.217
			C240.847,192.104,241.363,193.234,242.683,193.234"/>
		<path fill="#6D6E70" d="M255.878,190.458c-0.123,2.218-1.143,3.456-2.885,3.456c-1.985,0-3.102-1.536-3.102-5.021
			c0-3.483,1.116-5.02,3.102-5.02c1.974,0,2.788,1.401,2.788,2.993h-0.87c0-1.321-0.666-2.26-1.918-2.26
			c-1.387,0-2.231,1.144-2.231,4.286s0.845,4.286,2.231,4.286c1.225,0,1.918-1.049,2.013-2.722H255.878z"/>
		<rect x="257.114" y="184.037" fill="#6D6E70" width="0.816" height="9.714"/>
		<path fill="#6D6E70" d="M259.562,186.525h0.818v5.09c0,1.169,0.393,1.619,1.251,1.619c0.926,0,1.579-0.736,1.579-1.852v-4.857
			h0.814v7.225h-0.734v-1.007h-0.027c-0.408,0.804-1.115,1.171-1.85,1.171c-1.104,0-1.852-0.573-1.852-1.932V186.525z"/>
		<path fill="#6D6E70" d="M266.745,190.159c-1.022-0.396-1.389-0.993-1.389-1.714c0-1.484,0.925-2.082,2.149-2.082
			c1.36,0,1.986,0.692,1.986,2.013v0.206h-0.816v-0.206c0-0.939-0.435-1.333-1.184-1.333c-0.952,0-1.32,0.504-1.32,1.224
			c0,0.503,0.164,0.899,0.98,1.213l1.183,0.448c0.98,0.366,1.347,1.047,1.347,1.836c0,1.237-0.707,2.15-2.23,2.15
			c-1.482,0-2.219-0.612-2.219-2.244v-0.231h0.817v0.189c0,1.061,0.464,1.606,1.388,1.606c0.87,0,1.429-0.49,1.429-1.294
			c0-0.639-0.259-1.048-0.979-1.333L266.745,190.159z"/>
		<path fill="#6D6E70" d="M271.191,187.206h-0.992v-0.681h0.992v-1.999h0.817v1.999h1.277v0.681h-1.277v5.184
			c0,0.572,0.244,0.764,0.774,0.764c0.162,0,0.326-0.028,0.503-0.083v0.68c-0.096,0.056-0.299,0.082-0.571,0.082
			c-1.102,0-1.523-0.299-1.523-1.266V187.206z"/>
		<path fill="#6D6E70" d="M278.619,191.356c-0.123,1.536-0.966,2.558-2.326,2.558c-1.524,0-2.423-1.063-2.423-3.783
			c0-2.502,0.898-3.768,2.49-3.768c1.605,0,2.327,1.102,2.327,3.511v0.298h-3.946v0.339c0,2.084,0.735,2.724,1.538,2.724
			c0.855,0,1.387-0.614,1.523-1.878H278.619z M277.816,189.492c-0.027-1.796-0.53-2.449-1.537-2.449
			c-1.008,0-1.511,0.653-1.538,2.449H277.816z"/>
		<path fill="#6D6E70" d="M279.965,186.525h0.816v1.129h0.026c0.313-0.802,0.979-1.291,1.824-1.291c0.094,0,0.189,0.013,0.284,0.041
			v0.814c-0.136-0.026-0.272-0.04-0.394-0.04c-0.898,0-1.741,0.653-1.741,2.054v4.518h-0.816V186.525z"/>
	</g>
	<g>
		<path fill="#737477" d="M43.94,68.615v10.092c0,1.439,0.345,2.514,1.703,2.514c1.357,0,1.702-1.074,1.702-2.514V68.615h2.919
			v10.092c0,3.689-2.25,4.662-4.621,4.662c-2.372,0-4.621-0.79-4.621-4.662V68.615H43.94z"/>
		<path fill="#737477" d="M52.107,68.615h5.107c2.959,0,3.973,2.168,3.973,4.337c0,2.999-1.844,4.357-4.601,4.357h-1.56v5.777
			h-2.918V68.615z M55.025,75.161h1.296c1.156,0,1.947-0.689,1.947-2.169c0-1.42-0.568-2.229-2.028-2.229h-1.215V75.161z"/>
		<polygon fill="#737477" points="75.959,68.615 75.959,71.005 72.797,71.005 72.797,83.085 69.879,83.085 69.879,71.005 
			66.718,71.005 66.718,68.615 		"/>
		<path fill="#737477" d="M81.755,68.33c4.378,0,4.925,3.122,4.925,7.52c0,4.397-0.547,7.52-4.925,7.52
			c-4.377,0-4.926-3.122-4.926-7.52C76.829,71.452,77.377,68.33,81.755,68.33 M81.755,81.221c1.723,0,2.007-1.479,2.007-5.371
			c0-3.871-0.284-5.37-2.007-5.37c-1.723,0-2.006,1.5-2.006,5.37C79.749,79.742,80.032,81.221,81.755,81.221"/>
		<path fill="#737477" d="M100.865,71.29h-5.291l-0.303,3.263h0.04c0.547-0.75,1.398-1.074,2.635-1.074
			c2.756,0,3.506,2.311,3.506,4.581c0,3.141-0.913,5.31-4.601,5.31c-3.648,0-4.236-2.391-4.236-3.993v-0.385h2.797
			c0,0.953,0.162,2.351,1.419,2.351c1.175,0,1.702-0.933,1.702-2.797c0-2.371-0.364-3.041-1.682-3.041
			c-0.831,0-1.277,0.508-1.378,1.318h-2.614l0.527-7.804h7.479V71.29z"/>
		<path fill="#737477" d="M107.048,68.736c3.467,0,4.5,1.885,4.5,6.973c0,3.992-0.223,7.661-4.5,7.661
			c-3.465,0-4.499-1.885-4.499-6.972C102.55,72.425,102.772,68.736,107.048,68.736 M105.468,77.026c0,3.608,0.324,4.438,1.581,4.438
			c1.278,0,1.582-1.134,1.582-4.823V75.08c0-3.606-0.324-4.439-1.582-4.439c-1.276,0-1.581,1.136-1.581,4.825V77.026z"/>
		<path fill="#737477" d="M117.066,68.736c3.466,0,4.5,1.885,4.5,6.973c0,3.992-0.223,7.661-4.5,7.661
			c-3.465,0-4.499-1.885-4.499-6.972C112.567,72.425,112.79,68.736,117.066,68.736 M115.485,77.026c0,3.608,0.325,4.438,1.581,4.438
			c1.277,0,1.582-1.134,1.582-4.823V75.08c0-3.606-0.325-4.439-1.582-4.439c-1.277,0-1.581,1.136-1.581,4.825V77.026z"/>
		<polygon fill="#737477" points="125.97,68.615 125.97,74.411 126.011,74.411 129.7,68.615 132.861,68.615 128.929,74.816 
			133.307,83.085 130.024,83.085 127.044,77.147 125.97,78.789 125.97,83.085 123.052,83.085 123.052,68.615 		"/>
		<rect x="41.347" y="87.406" fill="#737477" width="2.918" height="14.471"/>
		<path fill="#737477" d="M50.908,87.122c4.377,0,4.925,3.121,4.925,7.519c0,4.397-0.548,7.519-4.925,7.519
			s-4.925-3.122-4.925-7.519C45.982,90.243,46.53,87.122,50.908,87.122 M50.908,100.012c1.723,0,2.007-1.479,2.007-5.371
			c0-3.871-0.284-5.37-2.007-5.37s-2.006,1.5-2.006,5.37C48.901,98.534,49.185,100.012,50.908,100.012"/>
		<path fill="#737477" d="M57.489,87.406h5.106c2.959,0,3.973,2.169,3.973,4.338c0,3-1.844,4.357-4.602,4.357h-1.56v5.777h-2.918
			V87.406z M60.407,93.952h1.297c1.156,0,1.946-0.689,1.946-2.169c0-1.42-0.569-2.229-2.027-2.229h-1.216V93.952z"/>
		<path fill="#737477" d="M70.471,97.357v0.426c0,1.358,0.385,2.229,1.925,2.229c0.893,0,1.745-0.566,1.745-1.785
			c0-1.315-0.669-1.802-2.594-2.47c-2.595-0.894-3.791-1.967-3.791-4.379c0-2.817,1.722-4.256,4.479-4.256
			c2.594,0,4.478,1.115,4.478,3.891v0.406h-2.796c0-1.359-0.467-2.147-1.582-2.147c-1.317,0-1.662,0.829-1.662,1.681
			c0,0.891,0.263,1.438,1.5,1.965l2.25,0.974c2.189,0.952,2.756,2.067,2.756,3.831c0,3.06-1.865,4.438-5.026,4.438
			c-3.304,0-4.601-1.54-4.601-4.215v-0.588H70.471z"/>
	</g>
	<g>
		<g>
			<polygon fill="#1B75BB" points="91.538,142.101 82.098,136.908 86.092,129.645 95.533,134.836 91.538,142.101 			"/>
		</g>
		<g>
			<polygon fill="#1B75BB" points="101.579,126.257 94.128,118.475 100.117,112.741 107.567,120.522 101.579,126.257 			"/>
		</g>
		<g>
			<polygon fill="#1B75BB" points="116.375,114.217 111.602,104.559 119.034,100.885 123.807,110.544 116.375,114.217 			"/>
		</g>
		<g>
			<polygon fill="#1B75BB" points="134.101,107.167 132.441,96.523 140.632,95.246 142.292,105.89 134.101,107.167 			"/>
		</g>
		<g>
			<polygon fill="#1B75BB" points="161.322,106.991 153.125,105.756 154.731,95.104 162.929,96.339 161.322,106.991 			"/>
		</g>
		<g>
			<polygon fill="#1B75BB" points="179.146,113.749 171.696,110.111 176.424,100.43 183.874,104.067 179.146,113.749 			"/>
		</g>
		<g>
			<polygon fill="#1B75BB" points="194.124,125.538 188.108,119.835 195.521,112.016 201.536,117.719 194.124,125.538 			"/>
		</g>
		<g>
			<polygon fill="#1B75BB" points="204.884,141.274 200.854,134.028 210.268,128.791 214.298,136.036 204.884,141.274 			"/>
		</g>
		<g>
			<polygon fill="#1B75BB" points="146.542,173.127 142.719,166.412 194.421,140.937 195.275,142.435 			"/>
		</g>
		<g>
			<path fill="#1B75BB" d="M145.732,176.358l-6.224-10.931l55.842-27.516l3.018,5.297L145.732,176.358L145.732,176.358z
				 M145.93,167.397l1.421,2.498l23.336-14.697L145.93,167.397L145.93,167.397z"/>
		</g>
		<g>
			<path fill="#1B75BB" d="M144.021,162.178c3.481-1.973,7.904-0.75,9.876,2.732c1.974,3.482,0.75,7.906-2.734,9.878
				c-3.48,1.971-7.903,0.748-9.876-2.732C139.315,168.572,140.538,164.151,144.021,162.178"/>
		</g>
		<g>
			<path fill="#1B75BB" d="M147.599,178.032c-3.436,0-6.623-1.855-8.315-4.842c-2.594-4.581-0.978-10.42,3.602-13.018
				c1.435-0.812,3.06-1.241,4.701-1.241c3.437,0,6.623,1.856,8.315,4.844c1.258,2.22,1.575,4.796,0.895,7.254
				c-0.681,2.46-2.278,4.506-4.499,5.763C150.864,177.604,149.24,178.032,147.599,178.032L147.599,178.032z M147.586,163.537
				c-0.846,0-1.687,0.224-2.43,0.645c-2.371,1.344-3.208,4.366-1.864,6.738c0.876,1.547,2.527,2.507,4.308,2.507
				c0.847,0,1.687-0.223,2.429-0.643c1.15-0.65,1.977-1.71,2.329-2.983c0.353-1.271,0.188-2.605-0.463-3.756
				C151.018,164.499,149.367,163.537,147.586,163.537L147.586,163.537z"/>
		</g>
		<g>
			<path fill="#1B75BB" d="M85.277,137.983l-5.911-2.576c11.98-27.485,39.091-45.025,69.071-44.711
				c29.124,0.316,55.547,17.742,67.314,44.396l-5.898,2.604c-10.75-24.346-34.885-40.265-61.486-40.553
				c-0.249-0.003-0.5-0.005-0.749-0.005C120.531,97.14,96.119,113.105,85.277,137.983L85.277,137.983z"/>
		</g>
	</g>
</g>
</svg>
